<svg xmlns="http://www.w3.org/2000/svg" viewBox="0 0 700.36 433.98"><defs><style>.cls-1,.cls-12{fill:#e0e0e0;}.cls-2{fill:#f5f5f5;}.cls-3{fill:#ebebeb;}.cls-11,.cls-4{fill:#fff;}.cls-5{fill:#263238;}.cls-6{fill:#455a64;}.cls-7{fill:#ff725e;}.cls-8{fill:#ae7461;}.cls-9{fill:#6f4439;}.cls-10{opacity:0.2;}.cls-11{stroke:#fff;stroke-width:0.5px;}.cls-11,.cls-12{stroke-miterlimit:10;}.cls-12{stroke:#e0e0e0;}.cls-13{fill:#ffbf9d;}.cls-14{fill:#ff9a6c;}.cls-15,.cls-17{opacity:0.3;}.cls-16{fill:#fafafa;}.cls-18{opacity:0.6;}</style></defs><g id="Layer_2" data-name="Layer 2"><g id="Background_Complete" data-name="Background Complete"><rect class="cls-1" x="15.24" width="164.79" height="356.93"/><rect class="cls-2" x="22.5" y="8.1" width="151.36" height="341.38"/><path class="cls-3" d="M22.5,212h90.07v9.07H80.2s-.84,128.42,0,128.42H22.5Z"/><polygon class="cls-4" points="173.87 27.23 22.5 261.97 22.5 289.88 173.87 51.31 173.87 27.23"/><polygon class="cls-4" points="98.19 8.1 22.5 130.79 22.5 214.85 151.24 8.1 98.19 8.1"/><rect class="cls-1" x="22.5" y="66.19" width="154.51" height="5.77"/><rect class="cls-1" x="175.84" width="164.79" height="356.93"/><rect class="cls-2" x="183.11" y="8.1" width="151.36" height="341.38"/><polygon class="cls-4" points="334.47 27.23 183.11 261.97 183.11 289.88 334.47 51.31 334.47 27.23"/><polygon class="cls-4" points="258.79 8.1 183.11 130.79 183.11 214.85 311.85 8.1 258.79 8.1"/><rect class="cls-1" x="183.11" y="66.19" width="154.51" height="5.77"/><rect class="cls-3" x="154.76" y="150.67" width="19.29" height="79.96"/><rect class="cls-3" x="182.97" y="150.67" width="19.29" height="79.96"/><rect class="cls-1" x="207.96" y="115.12" width="11.87" height="11.87" rx="1.54" transform="translate(148.25 -115.79) rotate(45)"/><rect class="cls-1" x="394.18" y="21.65" width="78.6" height="130.1"/><rect class="cls-3" x="391.57" y="21.65" width="78.6" height="130.1"/><rect class="cls-4" x="394.91" y="24.29" width="71.9" height="124.82"/><rect class="cls-3" x="408.6" y="40.51" width="44.21" height="92.38"/><path class="cls-1" d="M408.6,100.2c-.1-8.63,7.66-17.06,16.21-18.26,4.07-.58,8.4.23,12.21-1.33,6.79-2.79,9-11.82,15.8-14.49l.31,66.77H408.6Z"/><rect class="cls-1" x="491.91" y="21.65" width="78.6" height="130.1"/><rect class="cls-3" x="489.29" y="21.65" width="78.6" height="130.1"/><rect class="cls-4" x="492.64" y="24.29" width="71.9" height="124.82"/><rect class="cls-3" x="506.33" y="40.51" width="44.21" height="92.38"/><path class="cls-1" d="M506.33,100.2c-.11-8.63,7.65-17.06,16.2-18.26,4.07-.58,8.4.23,12.21-1.33,6.8-2.79,9-11.82,15.8-14.49l.31,66.77H506.33Z"/><rect class="cls-1" x="589.63" y="21.65" width="78.6" height="130.1"/><rect class="cls-3" x="587.02" y="21.65" width="78.6" height="130.1"/><rect class="cls-4" x="590.36" y="24.29" width="71.9" height="124.82"/><rect class="cls-3" x="604.05" y="40.51" width="44.21" height="92.38"/><path class="cls-1" d="M604.05,100.2c-.1-8.63,7.66-17.06,16.2-18.26,4.08-.58,8.41.23,12.22-1.33,6.79-2.79,9-11.82,15.8-14.49l.31,66.77H604.05Z"/></g><g id="Floor"><path class="cls-5" d="M699.21,358.44c0,.14-155.59.26-347.46.26s-347.5-.12-347.5-.26,155.55-.26,347.5-.26S699.21,358.3,699.21,358.44Z"/></g><g id="Character_2" data-name="Character 2"><path class="cls-5" d="M473.35,383l-2.81,15.45s16.67,6.54,16.8,9.64l-32.15-3.44,2.16-21Z"/><path class="cls-6" d="M455.12,408.29l.07-3.62,30.9,1.56s1.53,1.08,1.34,2.1Z"/><path class="cls-4" d="M471.07,398.1c0,.16-.8.22-1.59.71s-1.22,1.16-1.36,1.09.1-1,1.07-1.56S471.11,398,471.07,398.1Z"/><path class="cls-4" d="M474.44,399.58c0,.15-.65.41-1.2,1.07s-.72,1.36-.88,1.35-.24-.91.46-1.71S474.44,399.42,474.44,399.58Z"/><path class="cls-4" d="M476.3,403.69c-.14,0-.35-.77.07-1.63s1.17-1.19,1.24-1.06-.4.59-.74,1.3S476.46,403.67,476.3,403.69Z"/><path class="cls-4" d="M470.85,394.27c-.06.15-.79-.08-1.68,0s-1.6.31-1.68.18.6-.69,1.65-.73S470.93,394.15,470.85,394.27Z"/><path class="cls-5" d="M454.38,384.6l-2.81,15.46s16.67,6.54,16.8,9.64l-32.15-3.44,2.16-21Z"/><path class="cls-6" d="M436.16,409.88l.06-3.62,30.9,1.56s1.53,1.08,1.35,2.1Z"/><path class="cls-4" d="M452.1,399.69c0,.16-.8.22-1.59.71s-1.21,1.16-1.36,1.09.11-1,1.08-1.56S452.14,399.55,452.1,399.69Z"/><path class="cls-4" d="M455.48,401.17c0,.15-.66.41-1.21,1.07s-.72,1.36-.88,1.35-.24-.91.46-1.71S455.48,401,455.48,401.17Z"/><path class="cls-4" d="M457.34,405.27c-.15,0-.35-.76.07-1.62s1.17-1.19,1.23-1.06-.4.59-.74,1.3S457.49,405.26,457.34,405.27Z"/><path class="cls-4" d="M451.89,395.86c-.07.15-.79-.08-1.69,0s-1.6.31-1.68.18.6-.69,1.66-.73S452,395.74,451.89,395.86Z"/><path class="cls-6" d="M469.48,230.71c1.22-.17,21.4-.32,21.4-.32s8.86,34.34,6.86,50.95c-1.17,9.69-24.32,114-25.08,114.23s-22.92,0-22.92,0L463,257.07Z"/><path class="cls-6" d="M432.62,264.19c1.37-9.27,9-34.44,10.21-34.53s29.12.58,29.7.4-6.6,34.27-6.6,34.27c.85,3,7.59,60.11,6.54,70-1.4,13.14-15.9,65.14-15.9,65.14l-23.95-3.94s12.77-57.86,13-63.05S431.25,273.46,432.62,264.19Z"/><path class="cls-5" d="M441.17,233.09s-.1.27-.28.8-.44,1.34-.79,2.38c-.68,2.1-1.67,5.2-2.87,9.22s-2.65,8.94-4,14.76a41.55,41.55,0,0,0-.81,4.56,30.69,30.69,0,0,0,.25,4.94c.4,3.37,1,6.89,1.71,10.58,1.41,7.39,3.21,15.42,5.18,24.05q1.49,6.47,3.06,13.37c.52,2.3,1,4.63,1.54,7a72,72,0,0,1,1.28,7.24,21.62,21.62,0,0,1-.45,3.68c-.2,1.24-.46,2.48-.69,3.73-.49,2.51-1,5-1.51,7.6q-1.56,7.67-3.27,15.64c-2.26,10.62-4.65,21.62-7.13,32.89l0,.21.21,0,4.34.71,19.61,3.22.19,0,0-.18c4-14.57,7.75-28.59,11-41.84,1.6-6.63,3.13-13.05,4.26-19.3.16-.78.28-1.56.38-2.35a20.5,20.5,0,0,0,.26-2.33c.12-1.57.07-3.11.05-4.64s-.12-3-.18-4.51-.18-2.95-.27-4.41c-.8-11.59-1.81-22-2.71-31.05s-1.73-16.65-2.4-22.61l0,.07a67.06,67.06,0,0,0,6.71-9.57,28.77,28.77,0,0,0,1.33-2.7c.26-.63.37-.95.37-.95l-.41.93c-.28.62-.71,1.52-1.37,2.67a68.16,68.16,0,0,1-6.76,9.5l0,0v0c.64,6,1.43,13.58,2.31,22.61s1.86,19.47,2.64,31.06c.08,1.45.17,2.91.25,4.4s.14,3,.18,4.5.06,3.06-.05,4.6a20.19,20.19,0,0,1-.27,2.31c-.1.78-.22,1.56-.38,2.33-1.14,6.24-2.67,12.66-4.28,19.28-3.26,13.23-7,27.25-11,41.82l.23-.15L437,396.08l-4.33-.71.17.25c2.48-11.27,4.87-22.27,7.12-32.9q1.69-8,3.26-15.64.76-3.85,1.51-7.6c.22-1.26.48-2.5.68-3.75a22.57,22.57,0,0,0,.45-3.77,73.17,73.17,0,0,0-1.29-7.28c-.51-2.38-1-4.71-1.56-7q-1.59-6.9-3.08-13.37c-2-8.62-3.79-16.65-5.22-24-.71-3.69-1.33-7.21-1.74-10.56a30.28,30.28,0,0,1-.26-4.89,41.9,41.9,0,0,1,.78-4.53c1.31-5.82,2.75-10.74,3.91-14.77s2.15-7.13,2.8-9.23l.75-2.4C441.1,233.36,441.17,233.09,441.17,233.09Z"/><path class="cls-5" d="M438.57,253.37a3,3,0,0,0,.71-.24c.46-.18,1.1-.47,1.89-.84A57,57,0,0,0,452.61,245c.67-.56,1.2-1,1.56-1.36s.54-.52.52-.54a24.23,24.23,0,0,0-2.26,1.66c-1.38,1-3.32,2.45-5.55,3.87s-4.31,2.58-5.85,3.39A23.49,23.49,0,0,0,438.57,253.37Z"/><path class="cls-7" d="M450,153.22l-3.73,6.54-15.61,6.84,2.86,29.69,8.41,21.9s-3.58,13.71-1,13.53,55.08,4.14,54.34,3.6-.39-27.75-.92-28.11,2.62-15.15-.93-23.5-10.35-26.07-10-26.25-8.77-1.79-8.77-1.79l-5.55-4.92Z"/><path class="cls-7" d="M500.22,198.52c-.18-1.24-3.22-29.79-7.52-35.34s-9.3-5.72-9.3-5.72l-9.49,17.18s15.55,38.83,18.44,42.05,8.59,5.19,17.36,4.65,12.46-5.48,12.46-5.48L521,207.92Z"/><polygon class="cls-6" points="490.83 183.06 460.63 224.07 497.37 230.44 527.53 195.59 529.84 192.4 528.53 166.6 507.97 187.38 490.83 183.06"/><path class="cls-8" d="M456.28,213.19s5.91-7.56,8.25-10.86c0,0-.69.13,1.51,0s15.4,1.79,15.68,2.61.43,1.88-1.22,2.08-10.75-.29-10.75-.29,13.07,3.57,12.1,5.09-4,1.37-4,1.37,2.47,2.2,1.51,3-14.31,1.82-14.42,2l-3,4.14s-3.73,1.43-5,.58C456.91,222.91,455.45,217.47,456.28,213.19Z"/><path class="cls-7" d="M430.61,166.6s-8.06,2.85-8.89,15.91c-.62,9.66-2.57,37.05,2.27,42.77s11.45,6.37,15,5.16,19.16-6.15,19.16-6.15l-2.89-12-16.81,2.47.85-31.31Z"/><path class="cls-8" d="M524.42,199.47c.17.17.24,12.87-2.27,16.39s-8,2-8,2-12.9-9.38-12.23-11.39l.67-2s-2-1.85.17-3,11.9,6.2,11.9,6.2-9.66-7.61-8.55-9.38c.9-1.43,2.87-.46,6.26,1.75l4.9,3.19s-6.34-6.82-5.36-8.67,2.59.07,5.11,1.92a52.08,52.08,0,0,1,5.5,5Z"/><path class="cls-9" d="M511.41,211a28.19,28.19,0,0,1-4.6-3,29.44,29.44,0,0,1-4.3-3.43,29.2,29.2,0,0,1,4.6,3A30.13,30.13,0,0,1,511.41,211Z"/><polygon class="cls-1" points="507.97 187.38 527.51 192.11 526.58 168.49 507.97 187.38"/><path class="cls-5" d="M418.56,110.68a4.06,4.06,0,0,1,4.32-3.76,4.54,4.54,0,1,1,7.51-4.67,8.11,8.11,0,0,1,15.55,4.61l-1.66,19.73a5.26,5.26,0,0,1-9,1.82,4.69,4.69,0,0,1-7.27-5.45,3.17,3.17,0,0,1-4.32.71,5.14,5.14,0,0,1-2-4.23,14.79,14.79,0,0,1,1-4.76A4.07,4.07,0,0,1,418.56,110.68Z"/><path class="cls-5" d="M436.16,116.66a22.72,22.72,0,0,1,15.17-12.51c3.88-1,5.67-.53,8.66-.43a12.61,12.61,0,0,1,8.08,3,21.09,21.09,0,0,1,6.22,8.46,60.11,60.11,0,0,1,3,10.48,19.85,19.85,0,0,1-1,10.72L467.64,140c-4.93,1.32-9.93,2.65-15,2.64s-10.41-1.51-14-5.15C433.66,132.48,433,123,436.16,116.66Z"/><path class="cls-8" d="M444.15,114.74,455,107.2l3.22-.37c7.05-1.61,13.72,5,15.09,10.72,1.52,6.32,3.14,14.1,3.21,19,.16,9.86-7.68,12.5-7.68,12.5l.35,2.83-1.35,11.56-17.51-8.65-8.63-36.11A3.43,3.43,0,0,1,444.15,114.74Z"/><path class="cls-9" d="M462,137.63a2,2,0,0,1,.4-1.39,2.12,2.12,0,0,1,2.45-.72,2.83,2.83,0,0,1,1.64,2.33h0a2.56,2.56,0,0,1-1.54,1.45l-.34.08a2.25,2.25,0,0,1-1.64-.24A2,2,0,0,1,462,137.63Z"/><path class="cls-5" d="M465.9,133.42a9,9,0,0,1,2.09-.76c.33-.1.64-.22.66-.46a1.74,1.74,0,0,0-.41-1c-.46-.77-.94-1.57-1.45-2.4a45.71,45.71,0,0,1-3.43-6.34,44.08,44.08,0,0,1,3.93,6.05c.5.84,1,1.65,1.42,2.42a2,2,0,0,1,.41,1.29.91.91,0,0,1-.47.6,2.75,2.75,0,0,1-.56.18A8.76,8.76,0,0,1,465.9,133.42Z"/><path class="cls-9" d="M468.89,149.05a24.77,24.77,0,0,1-13.46-1.18s4.34,6.6,13.79,4Z"/><path class="cls-5" d="M462.17,135c.21-.05.46,1.39,1.87,2.19s2.92.38,3,.58-.29.34-.93.47a3.68,3.68,0,0,1-2.46-.4,3.18,3.18,0,0,1-1.48-1.86C462,135.41,462.07,135,462.17,135Z"/><path class="cls-5" d="M444.83,132.07l2,1.32c5.52-8.42,15.42-28.62,14.89-27.43a21.3,21.3,0,0,0-10.39,1.26c-5.06,2.12-14.45,7.08-12.85,13.25S444.83,132.07,444.83,132.07Z"/><path class="cls-8" d="M447.06,134.23c-.13-.71-1.25-2.25-2-2.24-1.94,0-5.31.79-4.51,5.58,1.11,6.54,7.46,4.09,7.44,3.9S447.5,136.7,447.06,134.23Z"/><path class="cls-9" d="M445.81,139.38s-.1.1-.28.22a1.15,1.15,0,0,1-.85.16,2.86,2.86,0,0,1-1.73-2.31,3.82,3.82,0,0,1,0-1.69,1.34,1.34,0,0,1,.71-1,.59.59,0,0,1,.73.2c.12.17.1.31.13.31s.12-.13,0-.39a.76.76,0,0,0-.33-.37.87.87,0,0,0-.66-.06,1.61,1.61,0,0,0-1,1.21,4,4,0,0,0-.09,1.9,3,3,0,0,0,2.14,2.54,1.22,1.22,0,0,0,1-.35C445.82,139.54,445.83,139.39,445.81,139.38Z"/><path class="cls-6" d="M435,131.66s-.06-.41-.19-1.15a22.73,22.73,0,0,1-.35-3.16,22.74,22.74,0,0,1,8-18.55,24.8,24.8,0,0,1,2.54-1.91,8.9,8.9,0,0,0,1-.66,1,1,0,0,0-.28.12c-.18.1-.45.22-.77.42a20.29,20.29,0,0,0-2.63,1.83,22.17,22.17,0,0,0-8.1,18.76,19.92,19.92,0,0,0,.47,3.18c.08.37.17.65.22.84S434.94,131.67,435,131.66Z"/><path class="cls-5" d="M439,187.13a3.87,3.87,0,0,1,0,1.09c0,.81-.06,1.79-.1,2.95-.08,2.5-.16,5.94-.19,9.75s-.06,7.14-.08,9.76c0,1.25,0,2.26-.07,3a4.07,4.07,0,0,1-.1,1.08,4.68,4.68,0,0,1-.1-1.08c0-.81-.06-1.8-.1-3,0-2.5-.11-6-.07-9.76s.17-7.27.35-9.77c.09-1.24.17-2.25.26-3A5.15,5.15,0,0,1,439,187.13Z"/><path class="cls-5" d="M440.21,179.31c-.08,0-.27-.77-.8-1.95a14,14,0,0,0-6.86-7c-1.16-.55-1.95-.76-1.93-.84a5.11,5.11,0,0,1,2.08.5,12.49,12.49,0,0,1,4.29,2.86,12.66,12.66,0,0,1,2.77,4.35A5.33,5.33,0,0,1,440.21,179.31Z"/><path class="cls-5" d="M490.83,183.06c-.18,0-.2-2.61-.69-5.74a27.42,27.42,0,0,0-1.69-5.48,4.36,4.36,0,0,1,1,1.43,13.81,13.81,0,0,1,1.24,4,24.9,24.9,0,0,1,.32,4.12A5.33,5.33,0,0,1,490.83,183.06Z"/><path class="cls-5" d="M440.25,230a10.28,10.28,0,0,1,1.31-.5l3.7-1.25,12.84-4.19-.17.29c-.54-2.51-1.13-5.23-1.75-8.06-.28-1.33-.57-2.63-.84-3.9l.29.2c-7,1-13.06,1.78-17.13,2.3h0a8.51,8.51,0,0,0-2.24.88,3.92,3.92,0,0,0-1.23,1.25,10.51,10.51,0,0,1-.86,1.25,2.14,2.14,0,0,1,.16-.35c.12-.23.3-.57.55-1a4.2,4.2,0,0,1,1.25-1.36,8.42,8.42,0,0,1,2.28-1h0c4.05-.63,10.13-1.51,17.1-2.5l.24,0,.05.23q.4,1.9.84,3.9c.61,2.83,1.19,5.56,1.73,8.07l.05.22-.22.06-12.9,4-3.74,1.12A8,8,0,0,1,440.25,230Z"/><path class="cls-9" d="M465.93,212.45a11.36,11.36,0,0,1,1.77.16c1.09.1,2.6.17,4.27.25a30,30,0,0,1,6,.58,45,45,0,0,1-6.07-.06,35.33,35.33,0,0,1-4.3-.41A4.18,4.18,0,0,1,465.93,212.45Z"/><path class="cls-9" d="M466.89,206.85c0-.13.69-.47,1.67-.48s1.71.31,1.67.44-.77.07-1.67.08S466.93,207,466.89,206.85Z"/><path class="cls-9" d="M524,204.86c-.16,0-.33-.75-.68-1.58s-.71-1.58-.57-1.65.63.53,1,1.44S524.14,204.84,524,204.86Z"/><path class="cls-5" d="M468,165.47a8.7,8.7,0,0,1-.41,1.41,30.63,30.63,0,0,0-1,3.76l0,.23-.22-.07a55.16,55.16,0,0,1-8.15-3.24c-3.51-1.74-6.51-3.62-8.69-4.95L446.92,161a4.22,4.22,0,0,1-.91-.65,4.48,4.48,0,0,1,1,.48c.64.33,1.54.84,2.65,1.47,2.23,1.25,5.25,3.07,8.73,4.8a66.42,66.42,0,0,0,8,3.32l-.26.16a22.88,22.88,0,0,1,1.2-3.77A6.15,6.15,0,0,1,468,165.47Z"/><path class="cls-5" d="M474.49,156.27a8.41,8.41,0,0,1-.12,2.23c-.16,1.37-.45,3.25-.9,5.3-.23,1.09-.49,2.11-.74,3l-.08.32-.27-.18a27.11,27.11,0,0,1-3.66-2.62,26.48,26.48,0,0,1,3.91,2.22l-.36.14c.22-.94.45-1.95.69-3,.45-2,.79-3.9,1-5.25A11.67,11.67,0,0,1,474.49,156.27Z"/></g><g id="Counter"><path class="cls-6" d="M331.34,140.31a3.56,3.56,0,0,0-3.42,1.46,5.74,5.74,0,0,0-.82,3.48,5.48,5.48,0,0,0,.94,3.24,6.06,6.06,0,0,0,3.95,2.15,9,9,0,0,0,4.25-.53,11.59,11.59,0,0,0-.33-4.69,7.51,7.51,0,0,0-1.38-3.17A5.13,5.13,0,0,0,331.34,140.31Z"/><path class="cls-5" d="M334.32,147a1.9,1.9,0,0,1,.27.39c.19.3.43.68.72,1.16.63,1,1.48,2.49,2.48,4.36s2.13,4.12,3.3,6.66,2.33,5.4,3.44,8.44,2,6,2.75,8.68,1.31,5.16,1.72,7.24.72,3.76.88,4.93c.08.56.14,1,.19,1.35a2.42,2.42,0,0,1,0,.48,2.71,2.71,0,0,1-.11-.47c-.07-.34-.15-.78-.26-1.33-.2-1.17-.54-2.85-1-4.91s-1.05-4.51-1.8-7.2-1.68-5.61-2.77-8.65-2.27-5.87-3.4-8.42-2.24-4.81-3.22-6.68-1.79-3.38-2.37-4.41l-.66-1.19A2.3,2.3,0,0,1,334.32,147Z"/><path class="cls-6" d="M330.58,162.85a3.4,3.4,0,0,1,0-3.37A6.91,6.91,0,0,1,333,157a5.14,5.14,0,0,1,2.88-1,3.9,3.9,0,0,1,3.05,1.83,7.15,7.15,0,0,1,1,3.5,12.41,12.41,0,0,1-3.81,2.26,6.71,6.71,0,0,1-3,.66A3.34,3.34,0,0,1,330.58,162.85Z"/><path class="cls-6" d="M346.15,145.44a3.15,3.15,0,0,0-2.06-2.6,4.08,4.08,0,0,0-2.92.48,4.85,4.85,0,0,0-2.25,2,6.93,6.93,0,0,0-.59,4.35,9.16,9.16,0,0,0,1.57,3.69,9.13,9.13,0,0,0,3.54-2,7.23,7.23,0,0,0,2.08-2.37A6,6,0,0,0,346.15,145.44Z"/><path class="cls-5" d="M340.3,147.57a12.71,12.71,0,0,1-.1,1.82,37.05,37.05,0,0,0-.07,4.36,27.9,27.9,0,0,0,.54,4.32,12.74,12.74,0,0,1,.35,1.78,6.73,6.73,0,0,1-.6-1.72,21.31,21.31,0,0,1-.66-4.36,25.28,25.28,0,0,1,.18-4.41A7,7,0,0,1,340.3,147.57Z"/><path class="cls-5" d="M343.61,165.91a26.38,26.38,0,0,0-1.95-2.65,10.39,10.39,0,0,0-1.72-1.52,9.45,9.45,0,0,1-.81-.52,1.63,1.63,0,0,1,.94.3,7.27,7.27,0,0,1,1.86,1.5A6,6,0,0,1,343.61,165.91Z"/><path class="cls-5" d="M362.47,137a2.9,2.9,0,0,1-.14.49q-.16.52-.45,1.38c-.41,1.18-1,2.91-1.63,5.06s-1.4,4.72-2.13,7.6S356.67,157.6,356,161s-1.12,6.6-1.49,9.55-.63,5.61-.79,7.85-.27,4-.33,5.31c0,.6-.05,1.08-.07,1.44a2.37,2.37,0,0,1-.06.51,2.91,2.91,0,0,1,0-.51c0-.37,0-.85,0-1.45,0-1.26.08-3.08.21-5.32s.37-4.92.71-7.87.84-6.2,1.47-9.57,1.38-6.57,2.12-9.45,1.51-5.45,2.21-7.59,1.29-3.86,1.74-5c.22-.56.39-1,.52-1.35A2.63,2.63,0,0,1,362.47,137Z"/><path class="cls-6" d="M369.85,132.28a4.32,4.32,0,0,0-3.5-2.49,8.76,8.76,0,0,0-4.38.76,6.59,6.59,0,0,0-3.18,2.26,5,5,0,0,0-.31,4.52,9,9,0,0,0,2.9,3.64,15.79,15.79,0,0,0,5.14-2.33,8.43,8.43,0,0,0,2.85-2.62A4.29,4.29,0,0,0,369.85,132.28Z"/><path class="cls-6" d="M347.12,155.23a3.42,3.42,0,0,1,0-3.38,7,7,0,0,1,2.47-2.48,5.14,5.14,0,0,1,2.88-1,3.91,3.91,0,0,1,3.05,1.83,7.15,7.15,0,0,1,1,3.51,12.31,12.31,0,0,1-3.82,2.25,6.54,6.54,0,0,1-3,.66A3.36,3.36,0,0,1,347.12,155.23Z"/><path class="cls-6" d="M369,154a3.45,3.45,0,0,0,.48-3.39,7,7,0,0,0-2.14-2.82,5.31,5.31,0,0,0-2.77-1.42,4,4,0,0,0-3.3,1.44,7.09,7.09,0,0,0-1.52,3.38,12.63,12.63,0,0,0,3.53,2.78,6.57,6.57,0,0,0,2.9,1.05A3.39,3.39,0,0,0,369,154Z"/><path class="cls-6" d="M353.5,136.73a3.56,3.56,0,0,0-3.42,1.46,5.74,5.74,0,0,0-.82,3.48,5.48,5.48,0,0,0,.94,3.24,6.06,6.06,0,0,0,3.95,2.15,9,9,0,0,0,4.25-.53,11.42,11.42,0,0,0-.33-4.69,7.56,7.56,0,0,0-1.38-3.17A5.13,5.13,0,0,0,353.5,136.73Z"/><path class="cls-5" d="M356.21,153.33a7.38,7.38,0,0,1,.28,5.07c-.1,0,0-1.15-.06-2.54S356.1,153.36,356.21,153.33Z"/><path class="cls-5" d="M360.53,150.05a12.19,12.19,0,0,1-1.55,2.53,11.84,11.84,0,0,1-1.84,2.33,12.6,12.6,0,0,1,1.54-2.54A11.77,11.77,0,0,1,360.53,150.05Z"/><path class="cls-5" d="M358.25,149.79a13,13,0,0,1,.21-4.37,6.57,6.57,0,0,1,.08,2.19A6.8,6.8,0,0,1,358.25,149.79Z"/><path class="cls-1" d="M359.69,183.19H344.45a.79.79,0,0,1-.79-.79h0a.79.79,0,0,1,.79-.79h15.24a.79.79,0,0,1,.79.79h0A.8.8,0,0,1,359.69,183.19Z"/><path class="cls-7" d="M366,199.36c-.56-6.15-5.41-7-6.35-7.65a2.55,2.55,0,0,1-.53-.51,4.05,4.05,0,0,1-.86-2.58V182.4H346.05v6.22a4.11,4.11,0,0,1-.86,2.58,2.6,2.6,0,0,1-.54.51c-.93.66-5.78,1.5-6.34,7.65s-2.61,20.16,1,24.63c3.36,4.13,6.63,4.38,12.08,4.39h1.45c5.46,0,8.73-.26,12.08-4.39C368.58,219.52,366.53,205.52,366,199.36Z"/><path class="cls-5" d="M360.09,183.23c0,.11-3.59.19-8,.19s-8-.08-8-.19,3.59-.18,8-.18S360.09,183.13,360.09,183.23Z"/><path class="cls-5" d="M339.58,210.21a12,12,0,0,1-.24-2.31c-.08-1.43-.12-3.42,0-5.61.06-1.09.11-2.13.25-3.09a6.06,6.06,0,0,1,.82-2.42,3.73,3.73,0,0,1,1.23-1.21,1.4,1.4,0,0,1,.6-.22,4.26,4.26,0,0,0-1.61,1.57,6.34,6.34,0,0,0-.71,2.33c-.12.93-.16,2-.21,3.06-.1,2.18-.11,4.15-.09,5.58A19.53,19.53,0,0,1,339.58,210.21Z"/><rect class="cls-8" x="300.58" y="272.41" width="350.87" height="140.31"/><g class="cls-10"><rect x="300.58" y="290.19" width="350.87" height="9.78"/></g><rect class="cls-5" x="375.41" y="195.29" width="74.09" height="33.44" rx="4.13"/><rect class="cls-9" x="296.13" y="225.34" width="361.5" height="64.85"/><rect class="cls-4" x="318.95" y="258.63" width="9.06" height="9.06" rx="1.54" transform="translate(280.82 -151.65) rotate(45)"/><path class="cls-11" d="M333.65,258.71a9.65,9.65,0,0,1,1.9-.17,3.31,3.31,0,0,1,2.22.59,1.7,1.7,0,0,1,.68,1.43,1.92,1.92,0,0,1-1.37,1.77v0a2.07,2.07,0,0,1,1.67,2,2.16,2.16,0,0,1-.69,1.62,4,4,0,0,1-2.79.76,11.75,11.75,0,0,1-1.62-.1Zm1,3.31h.95c1.1,0,1.75-.58,1.75-1.35,0-.95-.72-1.32-1.77-1.32a4.33,4.33,0,0,0-.93.07Zm0,3.87a5.2,5.2,0,0,0,.88.05c1.08,0,2.07-.39,2.07-1.57s-.95-1.56-2.09-1.56h-.86Z"/><path class="cls-11" d="M342.2,258.6v8.09h-1.05V258.6Z"/><path class="cls-11" d="M346.56,259.49H344.1v-.89h6v.89h-2.47v7.2h-1.05Z"/><path class="cls-11" d="M352,258.6h1v7.21h3.45v.88H352Z"/><path class="cls-11" d="M359.69,258.6v8.09h-1V258.6Z"/><path class="cls-11" d="M362.51,266.69V258.6h1.15l2.59,4.09a23.83,23.83,0,0,1,1.45,2.63h0c-.1-1.08-.12-2.07-.12-3.33V258.6h1v8.09h-1.05L365,262.58a27.32,27.32,0,0,1-1.51-2.69h0c.07,1,.09,2,.09,3.33v3.46Z"/><path class="cls-11" d="M371.41,258.6h1v3.9h0c.22-.31.43-.6.64-.86l2.47-3h1.29L374,262l3.15,4.66h-1.23l-2.67-4-.76.88v3.09h-1Z"/><path class="cls-11" d="M378.77,265.41a3.68,3.68,0,0,0,1.87.53c1.07,0,1.69-.56,1.69-1.38s-.43-1.18-1.52-1.6c-1.32-.47-2.13-1.16-2.13-2.29a2.33,2.33,0,0,1,2.61-2.2,3.6,3.6,0,0,1,1.79.4l-.29.85a3.12,3.12,0,0,0-1.54-.39c-1.1,0-1.52.66-1.52,1.21,0,.76.49,1.13,1.61,1.56,1.37.53,2.06,1.19,2.06,2.38s-.92,2.33-2.83,2.33a4.13,4.13,0,0,1-2.06-.52Z"/><path class="cls-12" d="M230,117a12.63,12.63,0,0,1,2.38-.21,4.2,4.2,0,0,1,2.78.74,2.12,2.12,0,0,1,.83,1.78,2.39,2.39,0,0,1-1.71,2.22v0a2.62,2.62,0,0,1,2.09,2.54,2.67,2.67,0,0,1-.86,2,5,5,0,0,1-3.49,1,15.11,15.11,0,0,1-2-.12Zm1.3,4.14h1.19c1.38,0,2.19-.72,2.19-1.69,0-1.19-.9-1.65-2.23-1.65a5.26,5.26,0,0,0-1.15.09Zm0,4.85a7.63,7.63,0,0,0,1.1.06c1.34,0,2.59-.5,2.59-2s-1.19-2-2.61-2H231.3Z"/><path class="cls-12" d="M241.43,116.83v10.11h-1.3V116.83Z"/><path class="cls-12" d="M247.63,117.94h-3.08v-1.11H252v1.11H249v9h-1.32Z"/><path class="cls-12" d="M255.16,116.83h1.31v9h4.32v1.1h-5.63Z"/><path class="cls-12" d="M265.55,116.83v10.11h-1.31V116.83Z"/><path class="cls-12" d="M269.83,126.94V116.83h1.42l3.24,5.11a28.75,28.75,0,0,1,1.82,3.29l0,0c-.12-1.35-.15-2.58-.15-4.15v-4.23h1.23v10.11H276.1l-3.21-5.13a33.07,33.07,0,0,1-1.89-3.38l-.05,0c.08,1.27.11,2.49.11,4.17v4.32Z"/><path class="cls-12" d="M281.7,116.83H283v4.87h.05c.27-.39.54-.75.79-1.08l3.09-3.79h1.62l-3.66,4.29,3.95,5.82h-1.55L284,122l-1,1.11v3.86h-1.3Z"/><path class="cls-12" d="M291.65,125.35A4.61,4.61,0,0,0,294,126c1.33,0,2.11-.71,2.11-1.73s-.54-1.48-1.9-2c-1.65-.58-2.67-1.44-2.67-2.86,0-1.58,1.3-2.75,3.27-2.75a4.52,4.52,0,0,1,2.23.5l-.36,1.06a4,4,0,0,0-1.92-.48c-1.38,0-1.9.83-1.9,1.52,0,.94.61,1.41,2,1.95,1.71.66,2.58,1.48,2.58,3s-1.16,2.91-3.54,2.91a5.21,5.21,0,0,1-2.58-.65Z"/></g><g id="Character_3" data-name="Character 3"><path class="cls-13" d="M596.66,182.51s-8.76-16.44-9.75-18.19c-1.12-2-6.86-9.62-7.72-9.36s-1.06,1.74-.93,2.12,4.69,6.73,4.56,7.63-7.12-9.11-8.08-8.85a1.83,1.83,0,0,0-.8,2.51c.44.75,5,7.29,5,7.29s-6.5-4.54-7-3.71-.93,2,.21,2.92,6.88,5.69,6.88,5.69-6.42-3.41-6.78-2.87-.42.93.24,2,6.77,4.23,6.9,4.61,3.18,4.88,4.6,6.84a8.74,8.74,0,0,0,4.21,2.74l3.17,4.72S597.79,184.7,596.66,182.51Z"/><path class="cls-14" d="M586.73,180s-.07,0-.18-.16a2.39,2.39,0,0,1-.42-.55,5.51,5.51,0,0,1-.66-2.45,11.75,11.75,0,0,1,0-1.76c0-.31.06-.64.11-1l.08-.5,0-.26v-.21c-.07-.57-.71-1-1.32-1.43s-1.35-.74-2.06-1.15a6.3,6.3,0,0,1-1-.72,2.38,2.38,0,0,1-.6-1.11,2,2,0,0,1,0-1.23,1.3,1.3,0,0,1,.91-.8,2.38,2.38,0,0,1,1.1,0,7.41,7.41,0,0,1,.94.3,15.29,15.29,0,0,1,1.6.7c1,.48,1.7.91,2.21,1.22a3.72,3.72,0,0,1,.76.53,3.87,3.87,0,0,1-.84-.39c-.53-.26-1.29-.65-2.25-1.09-.48-.22-1-.44-1.59-.65a3.76,3.76,0,0,0-1.83-.29,1.17,1.17,0,0,0-.66,1.56,2.06,2.06,0,0,0,.49.91,5.39,5.39,0,0,0,.94.65c.7.4,1.41.75,2.07,1.17a6.37,6.37,0,0,1,.92.7,1.81,1.81,0,0,1,.56,1v.32l0,.25-.09.49c-.05.32-.1.64-.13.95a11.27,11.27,0,0,0-.08,1.7,6,6,0,0,0,.5,2.4C586.53,179.76,586.76,180,586.73,180Z"/><path class="cls-3" d="M591.12,192.75c-.71-.17-2.8-3.19-2.8-3.19s9.68-8.68,9.68-8a12.25,12.25,0,0,0,1.84,2.62Z"/><path class="cls-7" d="M587.35,193.59l11.7-10.34s7.94,6.26,7.39,6.31-3.35,15.52-4,15.38S587.35,193.59,587.35,193.59Z"/><path class="cls-5" d="M640.36,123.92a4.31,4.31,0,0,0,2.25-.34,2.83,2.83,0,0,0,1.49-1.66,2.11,2.11,0,0,0-.5-2.12,2.17,2.17,0,1,0-.82-4.26,7.2,7.2,0,0,0-1.12-3.79L635.78,115Z"/><path class="cls-5" d="M609.08,116a4.72,4.72,0,0,1-4.92-3,2.81,2.81,0,0,1-.1-1.83,1.59,1.59,0,0,1,1.35-1.12,3.74,3.74,0,0,1-1.61-2.45,3,3,0,0,1,1-2.72,2.46,2.46,0,0,1,2.82-.17,2.91,2.91,0,0,1,1.63-2.62l4.43,1Z"/><path class="cls-13" d="M615.8,162.16l-.06-12.88s-9.27-1.52-9.31-10.8c0-4.48.69-13.71,1.43-22.06a17.3,17.3,0,0,1,17.37-15.76h.89c9.65.64,14.5,9.19,13.59,18.82l-2.93,36-12.08,9.88Z"/><path class="cls-14" d="M615.74,149.28a25.47,25.47,0,0,0,12.12-2.47s-2.86,5.75-12.11,4.84Z"/><path class="cls-5" d="M618.58,131.89a9.82,9.82,0,0,0-2.32-.44c-.36,0-.7-.11-.76-.36a1.8,1.8,0,0,1,.25-1.08c.35-.88.71-1.8,1.1-2.77,1.52-3.93,2.63-7.17,2.47-7.23s-1.52,3.08-3.05,7c-.37,1-.72,1.89-1,2.78a2.07,2.07,0,0,0-.2,1.43.89.89,0,0,0,.59.53,2.56,2.56,0,0,0,.62.1A9.9,9.9,0,0,0,618.58,131.89Z"/><path class="cls-5" d="M622.76,132.91c-.23,0-.24,1.53-1.58,2.62s-3,.9-3,1.12.37.3,1.06.33a3.9,3.9,0,0,0,2.5-.85,3.39,3.39,0,0,0,1.23-2.2C623,133.28,622.87,132.9,622.76,132.91Z"/><path class="cls-5" d="M608.79,112.17s2.49-5.79,5.31-7.12c3.4-1.62,4.83,2.12,8.07,1.24s6.49-2.43,9.78.1c3.59,2.76,1.88,4.67,2.07,8.79.77,16.7,3.78,21.44,4.71,13.59.11-.87,2.5-1.53,2.89-5.17.49-4.71.72-10.44-.31-13.8-.86-2.83-2.45-4.79-5.32-7-4.53-3.43-10.79-3.55-15-3.16S608.46,104.89,608.79,112.17Z"/><path class="cls-13" d="M638.15,128.51a2.52,2.52,0,0,1,2.73-2.41c1.73.18,3.65,1.18,3.51,4.75-.26,6.35-6.57,4.78-6.57,4.6S638,131.16,638.15,128.51Z"/><path class="cls-14" d="M639.29,133.12s.11.08.29.18a1.12,1.12,0,0,0,.83,0,2.75,2.75,0,0,0,1.36-2.41,3.58,3.58,0,0,0-.25-1.59,1.26,1.26,0,0,0-.79-.88.57.57,0,0,0-.67.27c-.09.18,0,.31-.09.32s-.13-.12-.07-.38a.66.66,0,0,1,.27-.38.82.82,0,0,1,.61-.14,1.56,1.56,0,0,1,1.12,1,3.68,3.68,0,0,1,.31,1.78,2.87,2.87,0,0,1-1.72,2.68,1.16,1.16,0,0,1-1-.21C639.3,133.27,639.27,133.13,639.29,133.12Z"/><path class="cls-7" d="M617.48,111.07h0Z"/><path class="cls-5" d="M606,99.91a5.29,5.29,0,0,1,3.79-3.13,10,10,0,0,1,5,.28c-.09-2.3,2.5-4,4.8-3.81s4.31,1.56,6.17,2.92A6.07,6.07,0,0,1,634,99a5.47,5.47,0,0,1,7.93,5.18,4.25,4.25,0,0,1,1.95,7.23,3,3,0,0,1-1.65,5.45l-4.44-4.24a4.71,4.71,0,0,1-5.15-4.4,5.34,5.34,0,0,1-5.63-1.51,3.83,3.83,0,0,1-6.24,1.34,4.51,4.51,0,0,1-7.82,2.44,4.13,4.13,0,0,1-5.47-6.17A3.65,3.65,0,0,1,606,99.91Z"/><path class="cls-6" d="M633,109.29a1,1,0,0,0,.1.53,3,3,0,0,0,.85,1.22,3.11,3.11,0,0,0,2.11.82,3.38,3.38,0,0,0,2.58-1.18l-.37,0a3.93,3.93,0,0,0,1.2,1.2,4.06,4.06,0,0,0,3.37.47,3.85,3.85,0,0,0,2.14-1.78,3.73,3.73,0,0,0,.5-1.81c0-.44-.08-.67-.11-.67a4.89,4.89,0,0,1-.67,2.31,3.52,3.52,0,0,1-5,1.09,3.43,3.43,0,0,1-1.06-1l-.17-.26-.2.24a3.06,3.06,0,0,1-2.24,1.07,3,3,0,0,1-1.91-.65A4.44,4.44,0,0,1,633,109.29Z"/><polygon class="cls-3" points="636.5 146.81 615.37 154.71 615.05 159.29 613.66 166.8 620.59 157.32 636.5 149.23 636.5 146.81"/><path class="cls-5" d="M559.18,191h0a1.17,1.17,0,0,1-1.67,0l-17.26-17.26a1.18,1.18,0,0,1,0-1.68h0a1.18,1.18,0,0,1,1.67,0l17.26,17.26A1.18,1.18,0,0,1,559.18,191Z"/><path class="cls-13" d="M573,196.46a26.34,26.34,0,0,0-3.66-5.81,100.14,100.14,0,0,0-8.91-6.15c-.85-.49-6.1,0-6.1,0l2.6,2.61a5.24,5.24,0,0,0,2.43.54l1.8,1.85-3.78-1.1s-5.86-4.58-7-4.12-.74,2.54,0,3.51l.61,1s-1.22,2.48-.12,3.58,3,2.89,3,2.89-.48,3.41,1.22,4.51c0,0-.61,1.95.61,2.68s12,3.3,12,3.3l5.25,3.72,4.84-10.53Z"/><path class="cls-14" d="M551.18,188.74a4.8,4.8,0,0,0,1.57,1.83,4.72,4.72,0,0,0,2.07,1.21,11,11,0,0,0-1.79-1.55A10.55,10.55,0,0,0,551.18,188.74Z"/><path class="cls-6" d="M687.35,288.71a4.18,4.18,0,0,0,3.2-5c-2.84-11.88-11.07-45.18-14.4-46.61-4.06-1.74-67,15.38-67,15.38l10.73,50.49Z"/><path class="cls-5" d="M652.46,245a5.72,5.72,0,0,0,.73-.13l2.07-.45,7.62-1.7,5.27-1.15c1.89-.39,3.92-.84,6.06-1.17a5.14,5.14,0,0,1,.75-.06c-.05,0,0,0,0,.05l.1.15a3.9,3.9,0,0,1,.19.35c.23.49.44,1,.64,1.55.4,1.06.77,2.16,1.14,3.29.73,2.25,1.45,4.6,2.17,7,2.88,9.64,5.31,18.42,7.1,24.76.89,3.14,1.61,5.7,2.12,7.52.25.85.44,1.53.59,2a3.9,3.9,0,0,0,.24.71,5.73,5.73,0,0,0-.15-.73c-.13-.51-.3-1.2-.51-2.06-.48-1.82-1.16-4.39-2-7.55-1.71-6.37-4.1-15.16-7-24.81-.73-2.4-1.45-4.75-2.19-7-.37-1.13-.75-2.23-1.16-3.3a17,17,0,0,0-.66-1.58c-.06-.13-.13-.26-.2-.38s-.1-.26-.42-.4a4.83,4.83,0,0,0-.88.07c-2.17.34-4.18.8-6.08,1.21l-5.26,1.2c-3.21.76-5.8,1.39-7.59,1.84l-2.05.53A3.77,3.77,0,0,0,652.46,245Z"/><path class="cls-5" d="M640.54,278.92c0,1,10.59,53.28,10.59,53.28l45.08,51.91L678.45,400.5s-53.62-52.59-55-57.72-10.93-27.66-9.56-27.66S640.54,278.92,640.54,278.92Z"/><path class="cls-5" d="M575.75,391.65l-3.64,17s-19.45,1.66-20.44,4.73l34.51,8.9L593,396.05Z"/><path class="cls-1" d="M583.14,410a1.3,1.3,0,1,1-1.23,2.29,1.46,1.46,0,0,1-.62-1.88,1.49,1.49,0,0,1,2-.34"/><path class="cls-6" d="M586.18,422.29l.58-2.67-33.31-7.53s-1.69.23-1.78,1.3Z"/><path class="cls-4" d="M571.59,408.35c0,.16.79.45,1.49,1.17s1,1.52,1.14,1.49.16-1-.71-1.87S571.59,408.19,571.59,408.35Z"/><path class="cls-4" d="M567.61,408.83c-.08.15.59.6,1,1.43s.38,1.58.55,1.61.51-.84,0-1.85S567.65,408.68,567.61,408.83Z"/><path class="cls-4" d="M564.51,412.4c.15.08.59-.66.37-1.64s-.91-1.54-1-1.43.26.71.42,1.52S564.35,412.35,564.51,412.4Z"/><path class="cls-5" d="M668.39,388.61l13.34,11.17s-7.62,18-5.37,20.28l24-26.34-20-18.3Z"/><path class="cls-1" d="M688.06,390.65a1.3,1.3,0,1,1,1.45,2.16,1.46,1.46,0,0,1-2-.33,1.48,1.48,0,0,1,.62-1.9"/><path class="cls-6" d="M700.36,393.72l-2.1-1.77L676,417.88s-.58,1.61.32,2.18Z"/><path class="cls-4" d="M681.21,400.09c.13.11.77-.49,1.74-.76s1.79-.15,1.85-.32-.82-.61-2-.25S681.07,400,681.21,400.09Z"/><path class="cls-4" d="M679.78,403.84c.09.13.81-.24,1.72-.21s1.58.4,1.69.27-.51-.84-1.65-.86S679.67,403.73,679.78,403.84Z"/><path class="cls-4" d="M681.49,408.25c.13-.1-.31-.83-1.28-1.1s-1.79.08-1.74.23.75.1,1.55.33S681.36,408.36,681.49,408.25Z"/><path class="cls-5" d="M648.4,268s.34,15.37-14,27.32c-11.51,9.59-25.28,49.86-25.28,49.86l-17.74,65.92-22-6,14.1-71.52,17.42-59.42.34-14,46.1-3.76Z"/><path class="cls-6" d="M568.91,405.39l14.19-71.95,17.4-59.37.35-14.33L647.34,256l.42,0,1.06,12v0c0,.16.18,15.72-14.15,27.66-11.28,9.41-25,49.27-25.13,49.64L591.79,411.2l-.11.41ZM647,256.84l-45.3,3.69-.33,13.62v.06l-17.42,59.44-14,71.13,21.17,5.79L608.72,345c.57-1.65,13.93-40.5,25.4-50.05C648,283.46,648,268.53,648,268Z"/><g class="cls-15"><path d="M647.6,274.17S611.48,278.62,606,277s-5.1-2.84-5.1-2.84l.75-5.88,45.92-.75S648,272.59,647.6,274.17Z"/></g><path class="cls-7" d="M637.82,146.44l1.36,4.19s11.27,15.7,12.29,25.27,1.37,16.39,0,22.19S648.4,220,648.4,220l8.19,50.54s-39.27,5.47-49.34,3.08-11.92-7.52-12.53-12.64,8.94-66.59,8.94-69.67,10.11-27.32,10.11-27.32l2.22-4.72a9.15,9.15,0,0,1,3.85-4.1C624.84,152.39,635.48,146.7,637.82,146.44Z"/><path class="cls-5" d="M636.28,239.18l-.56,0-1.55-.08-5.68-.23-19.16-.69.22.21v-7.86l-.23.22,24.89,1.08-.13-.1,1.59,5.47c.18.62.33,1.11.44,1.49a5.4,5.4,0,0,0,.17.53,4.57,4.57,0,0,0-.11-.49l-.36-1.46c-.35-1.35-.84-3.25-1.46-5.62l0-.1h-.11l-24.88-1.24-.23,0v8.32h.21l19.34.49,5.63.11,1.49,0A3.56,3.56,0,0,0,636.28,239.18Z"/><g class="cls-15"><path d="M638.6,201.41c.15-.25-13.05,33.89-26.5,33.32,0,0-8.49.89-14.1-2.58,0,0,.72-6.89,1.55-6.7s14.22-.76,14.22-.76Z"/></g><polygon class="cls-3" points="575.76 197.83 573.76 196.85 567.55 210.13 569.78 211.48 575.76 197.83"/><path class="cls-7" d="M642.59,194.57s-21,38.27-32.78,37.57-40.46-18.85-40.64-18.78S576,197.3,576,197.3l29.83,11.06,7.94-21.3s3.92-26.7,19.6-23.23S646.22,188.34,642.59,194.57Z"/><path class="cls-5" d="M642.59,194.57a8.3,8.3,0,0,0,.63-1.17,22.17,22.17,0,0,0,1.27-3.65,33.42,33.42,0,0,0,1-6.13,27.4,27.4,0,0,0-.65-8.32,15.85,15.85,0,0,0-5.25-8.76,14.53,14.53,0,0,0-5.23-2.61,11.48,11.48,0,0,0-12,3.06,23.08,23.08,0,0,0-4.12,5.71A49.68,49.68,0,0,0,613.57,187v0l-8,21.3.28-.13-24.32-9-5.51-2-.2-.07-.08.19L571.16,208c-.38.89-.75,1.77-1.13,2.65l-.55,1.32-.27.66a7.15,7.15,0,0,0-.26.72c.59.47.18.15.31.26l0,0,0,0,.07.07.28.17.61.36,1.21.72,2.41,1.42c6.43,3.76,12.71,7.22,18.87,10.14,3.07,1.49,6.14,2.77,9.17,3.89l2.29.75c.75.25,1.53.4,2.29.61a16.43,16.43,0,0,0,2.31.41,10.92,10.92,0,0,0,1.15.12,8.8,8.8,0,0,0,1.16-.08,10.93,10.93,0,0,0,4.14-1.74,26.46,26.46,0,0,0,3.43-2.61,58.07,58.07,0,0,0,5.58-5.81A133,133,0,0,0,632.57,211c2.28-3.37,4.13-6.33,5.62-8.77s2.58-4.35,3.32-5.66c.35-.65.63-1.14.82-1.49s.26-.52.26-.52-.11.17-.3.5l-.86,1.47c-.76,1.29-1.88,3.19-3.39,5.61s-3.37,5.38-5.67,8.72a134.92,134.92,0,0,1-8.31,11,59.94,59.94,0,0,1-5.57,5.76,27.18,27.18,0,0,1-3.39,2.57,10.76,10.76,0,0,1-4,1.67,8,8,0,0,1-1.1.08,8.54,8.54,0,0,1-1.12-.13,13.7,13.7,0,0,1-2.27-.41c-.74-.2-1.51-.35-2.26-.6l-2.27-.76c-3-1.11-6.07-2.39-9.13-3.88-6.14-2.93-12.41-6.4-18.82-10.15l-2.41-1.43-1.21-.72-.61-.36-.33-.19-.25-.1-.12,0h-.06c.06.08-.2-.22.12.19.27,0,.07,0,.14,0v0l0-.08.07-.16.13-.33.26-.65.56-1.32c.37-.88.74-1.76,1.12-2.64q2.28-5.31,4.64-10.76l-.28.12,5.52,2.05,24.32,9,.2.07.08-.2c2.77-7.45,5.44-14.62,7.92-21.31v0a49.14,49.14,0,0,1,4.57-14.21,22.53,22.53,0,0,1,4-5.64,12.12,12.12,0,0,1,5.58-3.26,12.31,12.31,0,0,1,6.1.25,14.43,14.43,0,0,1,5.13,2.54,15.67,15.67,0,0,1,5.19,8.59,27.39,27.39,0,0,1,.7,8.25,33.85,33.85,0,0,1-.91,6.11,24.93,24.93,0,0,1-1.2,3.65q-.27.6-.42.9C642.64,194.46,642.59,194.57,642.59,194.57Z"/><path class="cls-5" d="M604.63,189.56a2.66,2.66,0,0,0,.29-.47c.19-.36.43-.82.74-1.38l2.67-5.14,8.66-17c.32-.65.65-1.29,1-1.93l0,0,.93-1.41,0,0,1.38-1.5-.05,0,13.31-7.13,3.88-2.13,1-.59a1.93,1.93,0,0,0,.34-.22s-.14,0-.38.15l-1.07.53-3.94,2-13.39,7,0,0,0,0L618.53,162h0v0l-.93,1.4h0l-1,1.93-8.54,17.08c-1.06,2.16-1.92,3.92-2.54,5.2l-.67,1.42A2.41,2.41,0,0,0,604.63,189.56Z"/><polygon class="cls-5" points="674.17 242.22 668.8 243.3 652.36 187.41 651.99 179.78 674.17 242.22"/><path class="cls-5" d="M643.4,191.78c.12.06,1.48-2.16,3.27-4.83s3.32-4.79,3.22-4.87a27.64,27.64,0,0,0-3.59,4.62A27,27,0,0,0,643.4,191.78Z"/><path class="cls-5" d="M606.44,212.72s.11.36.27,1a16.11,16.11,0,0,1,.35,2.76,26.14,26.14,0,0,0,.38,4.17,7.17,7.17,0,0,0,.92,2.34,3.34,3.34,0,0,0,.95,1,.91.91,0,0,0,.8.21.8.8,0,0,0,.49-.72,14.27,14.27,0,0,0-.26-2.69c-.15-.84-.33-1.65-.53-2.41a38.35,38.35,0,0,0-1.32-4c-.45-1.1-.85-2-1.14-2.57a5.28,5.28,0,0,0-.51-.9,4.38,4.38,0,0,0,.35,1c.24.62.6,1.5,1,2.61s.84,2.45,1.22,4c.19.75.36,1.55.5,2.39a13.77,13.77,0,0,1,.25,2.55c-.06.43-.23.47-.6.2a2.9,2.9,0,0,1-.84-.87,6.76,6.76,0,0,1-.88-2.19,29.48,29.48,0,0,1-.47-4.1,12.61,12.61,0,0,0-.5-2.78A3,3,0,0,0,606.44,212.72Z"/><g class="cls-15"><path d="M637.22,151s-16.36,9.94-17.45,11.93-12.43,21.28-12.43,21.28l11.35-22.07,1.38-1.5Z"/></g><g class="cls-15"><path d="M606.68,210.61a44,44,0,0,1,3.92,11.6,2.94,2.94,0,0,1,.06,1.18,1.07,1.07,0,0,1-.72.87,1.12,1.12,0,0,1-1.12-.48,3,3,0,0,1-.46-1.2,119.94,119.94,0,0,1-2.27-12.45c.17,0,.24,0,.59.48"/></g><path class="cls-6" d="M669.63,240.11a1.16,1.16,0,0,0,2.31,0,1.16,1.16,0,1,0-2.31,0Z"/><path class="cls-5" d="M604.21,187.43a90.79,90.79,0,0,1-1,9.6,92.53,92.53,0,0,1-1.55,9.54,91.1,91.1,0,0,1,1-9.61A86.51,86.51,0,0,1,604.21,187.43Z"/></g><g id="Character_1" data-name="Character 1"><rect class="cls-7" x="108.33" y="327.06" width="130.2" height="27.79" rx="8.94"/><path class="cls-7" d="M199.16,311.2h45.22a9.79,9.79,0,0,1,9.79,9.79v96.08a0,0,0,0,1,0,0h-55a0,0,0,0,1,0,0V311.2A0,0,0,0,1,199.16,311.2Z"/><path class="cls-7" d="M113.76,253.32h87.32a13.11,13.11,0,0,1,13.11,13.11v60.63a0,0,0,0,1,0,0H113.76a0,0,0,0,1,0,0V253.32A0,0,0,0,1,113.76,253.32Z"/><path class="cls-7" d="M80.2,253.32H184a0,0,0,0,1,0,0v73.74a0,0,0,0,1,0,0H68.12a0,0,0,0,1,0,0V265.4A12.08,12.08,0,0,1,80.2,253.32Z"/><polygon class="cls-7" points="234.6 417.56 122.23 418.1 122.23 353.36 234.6 353.36 234.6 417.56"/><g class="cls-15"><path d="M80.2,253.32H96.68a0,0,0,0,1,0,0v73.74a0,0,0,0,1,0,0H68.12a0,0,0,0,1,0,0V265.4A12.08,12.08,0,0,1,80.2,253.32Z"/></g><path class="cls-5" d="M203.22,365.16c0,.15-15.91.27-35.54.27s-35.53-.12-35.53-.27,15.9-.27,35.53-.27S203.22,365,203.22,365.16Z"/><path class="cls-13" d="M144.57,224.79l-3.17-30.33c-1.47-9.46,2.82-18.21,12.32-19.42l.89-.06a17.13,17.13,0,0,1,18.11,14.55c1.23,8.21,2.48,17.3,2.73,21.74.51,9.18-8.57,11.23-8.57,11.23s.56,5.57.86,8.25h0l-1.54,7.11Z"/><path class="cls-14" d="M166.87,222.53a22.26,22.26,0,0,1-12.19-2.72s3.35,6.7,12.44,5.25Z"/><path class="cls-5" d="M163,205.16a9.37,9.37,0,0,1,2.26-.57c.36-.06.69-.16.74-.41a1.87,1.87,0,0,0-.32-1.05c-.39-.85-.81-1.74-1.25-2.67a48.8,48.8,0,0,1-2.88-7c.16-.07,1.7,2.95,3.44,6.75.42.94.82,1.84,1.21,2.69a2.1,2.1,0,0,1,.28,1.4.92.92,0,0,1-.55.57,2.61,2.61,0,0,1-.61.12A9.15,9.15,0,0,1,163,205.16Z"/><path class="cls-13" d="M142.58,200.89c-.16,0-6.43-1.43-5.8,4.83s6.78,4.33,6.77,4.15S142.58,200.89,142.58,200.89Z"/><path class="cls-14" d="M141.4,207.69s-.1.09-.27.19a1.11,1.11,0,0,1-.82.1,2.72,2.72,0,0,1-1.49-2.29,3.74,3.74,0,0,1,.15-1.59,1.26,1.26,0,0,1,.74-.92.55.55,0,0,1,.67.23c.1.17.08.3.11.3s.12-.11,0-.37a.74.74,0,0,0-.29-.37.85.85,0,0,0-.62-.09,1.51,1.51,0,0,0-1,1.08,3.72,3.72,0,0,0-.2,1.78,2.84,2.84,0,0,0,1.86,2.54,1.13,1.13,0,0,0,1-.26C141.41,207.85,141.43,207.7,141.4,207.69Z"/><path class="cls-5" d="M184.4,179.61a1.52,1.52,0,0,0-.78-.8,4.47,4.47,0,0,0-2.38-.15,13.23,13.23,0,0,1-5.87-.88,6.93,6.93,0,0,0,1.57-1.34,4,4,0,0,0,.74-4,.84.84,0,0,0-.55-.55c-.42-.09-.73.35-1,.69a3.38,3.38,0,0,1-3,1.66,5.53,5.53,0,0,1-2.45-.47l-.08-.08-1.05-.87h0a20.9,20.9,0,0,0-6.93-4.16,21.36,21.36,0,0,0-11.44.23c-3.11,1.15-5.71,4-5.83,7.32-1.94-1.33-4.62-1.06-6.71,0l-.06,0c-2.34,1.1-3.46,3.8-3.93,6.34,0,.14,0,.28-.07.42a9.82,9.82,0,0,1-2.95,3.51c-.22.16-.47.35-.48.62s.25.47.48.61a4.9,4.9,0,0,0,2,.62,10.18,10.18,0,0,1-.63,1.78c-.23.49-.5,1.08-.21,1.54a1,1,0,0,0,1.11.36,3.07,3.07,0,0,0,1.08-.62c-.21.67-.41,1.34-.62,2A5.89,5.89,0,0,0,137,193c.74,2.26,1.55,6.51,2.3,8,1.66-.13,2-.35,2.91-.16,1.12.26.9,2.22,2.26,1.53.69-.35,1.52-3.17,1.69-3.93a36,36,0,0,0,.06-15.28,11.59,11.59,0,0,1,3.29-2.91l-.09.11c2.47-1.14,5.28-2.3,7.82-1.34,2,.75,3.28,2.59,4.84,4a13.17,13.17,0,0,0,10.13,3.75c.63,2.73,1.18,7.24,1.57,9.8l1.69-5.38v0a9.46,9.46,0,0,0,.37-1l0-.09h0c.18-.52.35-1,.58-1.54l0,0a1.62,1.62,0,0,0,2.14-2.39,3.57,3.57,0,0,0-.85-.7,2.57,2.57,0,0,0,2.49.39,2,2,0,0,0,1.22-2.12,1.74,1.74,0,0,0-1.15-1.27,5.67,5.67,0,0,0,3.19-1C184.12,181.06,184.7,180.39,184.4,179.61Z"/><path class="cls-6" d="M148.28,177a7.42,7.42,0,0,0-.83.93,6.49,6.49,0,0,0-1.11,3.18,11.48,11.48,0,0,0,0,2.35c.08.84.24,1.74.4,2.69a24.72,24.72,0,0,1,.36,3,10.87,10.87,0,0,1-.05,1.61,3.28,3.28,0,0,1-.49,1.6,1.38,1.38,0,0,1-1.25.56,2.1,2.1,0,0,1-1.23-.54,4.74,4.74,0,0,1-1.11-2.24h.19a8,8,0,0,1-.92,2,2.77,2.77,0,0,1-1.69,1.14,1.65,1.65,0,0,1-1-.07,1.57,1.57,0,0,1-1-1.36,1.18,1.18,0,0,1,.22-.74l.11.08a5.51,5.51,0,0,1-2.41,2l-.21.08s.06,0,.2-.11.32-.17.56-.32a6.11,6.11,0,0,0,1.75-1.69l.11.08a1.16,1.16,0,0,0,.07,1.36,1.4,1.4,0,0,0,.64.51,1.59,1.59,0,0,0,.87.05,2.58,2.58,0,0,0,1.56-1.08,7.53,7.53,0,0,0,.89-2l.1-.3.09.31a4.6,4.6,0,0,0,1.06,2.14,1.88,1.88,0,0,0,1.1.49,1.18,1.18,0,0,0,1.06-.48,3.08,3.08,0,0,0,.46-1.5,10.34,10.34,0,0,0,0-1.57,24.9,24.9,0,0,0-.35-3c-.15-.95-.3-1.85-.37-2.7a11.11,11.11,0,0,1,0-2.39,6.46,6.46,0,0,1,1.19-3.21A3.55,3.55,0,0,1,148.28,177Z"/><path class="cls-6" d="M177.5,183.08l-.07.07-.21.19a2.52,2.52,0,0,1-.37.29,5.42,5.42,0,0,1-.53.35,8.15,8.15,0,0,1-3.85,1.09,10.46,10.46,0,0,1-5.73-1.5,17.83,17.83,0,0,1-5.28-5c-.78-1-1.43-2.12-2.14-3.11a11.88,11.88,0,0,0-2.32-2.59,6.22,6.22,0,0,0-2.79-1.34,4.47,4.47,0,0,0-1.41,0,4.91,4.91,0,0,0-1.25.37,5.33,5.33,0,0,0-1.8,1.34,5.24,5.24,0,0,0-.9,1.44,7.53,7.53,0,0,0-.34,1.42V176c0-.08,0-.17,0-.29a5.69,5.69,0,0,1,.25-1.07,5.26,5.26,0,0,1,.89-1.49,5.56,5.56,0,0,1,1.82-1.4,5.37,5.37,0,0,1,1.29-.39,4.84,4.84,0,0,1,1.47,0,6.55,6.55,0,0,1,2.89,1.36,12.74,12.74,0,0,1,2.37,2.62c.71,1,1.36,2.08,2.13,3.12a18.19,18.19,0,0,0,5.21,5,10.39,10.39,0,0,0,5.63,1.52,8.28,8.28,0,0,0,3.81-1A12.52,12.52,0,0,0,177.5,183.08Z"/><path class="cls-6" d="M177.93,179a1.67,1.67,0,0,1-.3.26,7.42,7.42,0,0,1-.93.59,8.83,8.83,0,0,1-1.49.65,10.61,10.61,0,0,1-1.94.46,9.88,9.88,0,0,1-3.61-.19,7.22,7.22,0,0,1-1-.33c-.24-.1-.37-.16-.36-.18s.54.18,1.44.36a9.41,9.41,0,0,0,1.59.2,11.9,11.9,0,0,0,2-.07,12.24,12.24,0,0,0,1.91-.43,10.22,10.22,0,0,0,1.48-.61C177.45,179.28,177.91,178.94,177.93,179Z"/><path class="cls-5" d="M163.35,209.44c-.1-.21-1.51.52-3.14-.17s-2.26-2.27-2.46-2.18-.1.48.21,1.12a3.9,3.9,0,0,0,2,1.86,3.47,3.47,0,0,0,2.59.06C163.14,209.87,163.41,209.54,163.35,209.44Z"/><path class="cls-5" d="M251.11,346.28l12.11,16.16s20.49-6.88,23-4.11l-30.5,24.6-19.89-24.41Z"/><path class="cls-1" d="M252.72,368.73a1.6,1.6,0,0,0,.28,2.11,1.53,1.53,0,0,0,2.1-.26,1.68,1.68,0,0,0-.31-2.24,1.58,1.58,0,0,0-2.15.52"/><path class="cls-6" d="M255.74,382.93l-1.91-2.54,30-22.63s1.83-.51,2.45.57Z"/><path class="cls-4" d="M263.58,361.89c.12.15-.57.82-.92,1.89s-.23,2-.41,2.06-.66-1-.22-2.28S263.51,361.72,263.58,361.89Z"/><path class="cls-4" d="M267.85,360.63c.15.12-.29.89-.29,1.93s.4,1.82.24,1.93-.92-.65-.9-1.94S267.73,360.49,267.85,360.63Z"/><path class="cls-4" d="M272.76,363c-.11.14-.92-.43-1.2-1.56s.16-2,.33-1.93.08.85.32,1.77S272.89,362.86,272.76,363Z"/><path class="cls-4" d="M260.42,358.51c0,.19-.8.53-1.6,1.27s-1.24,1.53-1.42,1.46,0-1.1,1-2S260.4,358.33,260.42,358.51Z"/><path class="cls-5" d="M223.91,401.38l-.76,20.18s20.25,7.56,20.47,11.31l-39.18-.09-.09-31.49Z"/><path class="cls-1" d="M211,419.84a1.62,1.62,0,0,0-1.11,1.83,1.55,1.55,0,0,0,1.8,1.11,1.69,1.69,0,0,0,1.17-1.94,1.6,1.6,0,0,0-2-.95"/><path class="cls-6" d="M204.44,432.78l.12-3.17,37.52,1.26s1.74.77,1.54,2Z"/><path class="cls-4" d="M223.78,421.37c0,.19-1,.27-1.9.89s-1.45,1.41-1.63,1.34.12-1.18,1.27-1.91S223.82,421.19,223.78,421.37Z"/><path class="cls-4" d="M227.89,423.08c0,.18-.79.5-1.44,1.31s-.84,1.67-1,1.66-.31-1.09.52-2.08S227.88,422.89,227.89,423.08Z"/><path class="cls-4" d="M230.21,428c-.17,0-.44-.92.06-2s1.39-1.47,1.47-1.31-.48.72-.87,1.59S230.4,428,230.21,428Z"/><path class="cls-4" d="M223.45,416.75c-.08.17-1-.09-2,0s-1.93.41-2,.24.72-.84,2-.91S223.54,416.6,223.45,416.75Z"/><path class="cls-5" d="M144.29,312.89c.51-.16,18.34-8,33-14a124.84,124.84,0,0,1,21.88-6.16s14.89-8.67,20.53-.79,45.75,62.77,45.47,63.61-19.46,17.87-19.46,17.87-41.31-52.6-42.16-52.32-19.94,15.24-19.94,15.24-5.74,5.93-10,6.49-29-1.4-29-1.4L135.24,316Z"/><path class="cls-5" d="M165.35,335c.89.59,10.3,7.19,10.3,7.19l21.3,4.92,4.33,69.93,25.45-.91s0-50.42,0-62.23-.3-22.74-3.84-26.58-19.39-6.27-19.39-6.27Z"/><path class="cls-6" d="M226.73,351.22a4.29,4.29,0,0,1,0-.82c0-.6,0-1.39,0-2.38,0-2.06-.09-5-.34-8.71-.14-1.83-.32-3.84-.67-6-.1-.53-.2-1.07-.31-1.61s-.26-1.09-.43-1.63a6.4,6.4,0,0,0-1.7-2.93,21.59,21.59,0,0,0-6.7-3.35,79,79,0,0,0-7.89-2.16c-1.43-.32-2.86-.6-4.2-.84l.21-.05-20.42,16-6.11,4.71-1.67,1.25a5.33,5.33,0,0,1-.6.41,2.85,2.85,0,0,1,.54-.49l1.6-1.33,6-4.84,20.31-16.09.09-.08.12,0c1.36.24,2.78.53,4.23.85a78.05,78.05,0,0,1,7.94,2.18,22,22,0,0,1,6.87,3.49,6.77,6.77,0,0,1,1.81,3.15c.17.56.29,1.12.43,1.67s.2,1.1.3,1.64c.33,2.15.49,4.17.61,6,.21,3.68.2,6.67.17,8.73,0,1,0,1.84-.08,2.38A4.77,4.77,0,0,1,226.73,351.22Z"/><polygon class="cls-16" points="141.81 228.96 143.73 222.23 163.41 231.07 167.37 225.91 167.76 227.51 184.85 256.61 195.73 291.78 149.07 310.85 143.98 282.14 141.81 228.96"/><path class="cls-5" d="M180.65,287.92a2.26,2.26,0,0,1-.13-.57l-.27-1.66c-.21-1.45-.55-3.53-1-6.1a174.53,174.53,0,0,0-4.82-19.8,175.37,175.37,0,0,0-7.18-19.07c-1.07-2.38-2-4.3-2.6-5.61-.29-.61-.53-1.12-.71-1.52a2.2,2.2,0,0,1-.22-.55,2.76,2.76,0,0,1,.31.5l.81,1.48c.7,1.28,1.64,3.18,2.75,5.55a149.11,149.11,0,0,1,7.35,19.07,150.81,150.81,0,0,1,4.68,19.88c.42,2.59.7,4.68.85,6.14.07.68.12,1.23.17,1.68A2.32,2.32,0,0,1,180.65,287.92Z"/><path class="cls-5" d="M170.06,232.77a3.72,3.72,0,0,1-.59.84l-1.78,2.2-.1.13-.14-.12-4.29-3.8.4-.11c-.48,1.69-1,3.53-1.56,5.47l-.09.3-.29-.14-1.24-.61c-4.12-2-7.84-3.91-10.51-5.29L146.71,230a6.4,6.4,0,0,1-1.13-.67,6.37,6.37,0,0,1,1.22.48L150,231.3c2.73,1.29,6.47,3.11,10.59,5.15l1.24.61-.38.17c.57-1.94,1.12-3.77,1.61-5.46l.11-.37.29.26,4.19,3.91h-.25l1.9-2.09A4.4,4.4,0,0,1,170.06,232.77Z"/><path class="cls-17" d="M144.62,341.42l4.45.34,6.44-33.65s-7,4.27-7.19,4.81S144.62,341.42,144.62,341.42Z"/><path class="cls-6" d="M143,224.22l-1.85,4.88-13,8.5L133,292.05s-9.35,26.55-9.35,38.3,2.61,17.41,5.65,18.94,14.8-4.14,14.8-4.14,1.27-6.93,8.1-22.63,14.1-32.87,14.1-32.87,2.18-8.48-2.83-23.94S143,224.22,143,224.22Z"/><path class="cls-13" d="M214.74,248.68s-.31-8.21.13-9.58v0a7.55,7.55,0,0,1,5.16-4.57,3,3,0,0,1,2.38.22c.41.41,1,3.47,1,3.47l11-2S227.87,246.26,226,249a29.74,29.74,0,0,1-3.72,4.5l-12.1,28.83-4.91-16.42Z"/><path class="cls-5" d="M237.43,222.16c-.25.3-13.9,26.36-13.9,26.36l-3-1.34,14-26.64Z"/><path class="cls-13" d="M235.08,226.44c.27.05,1.33-.23,1.49,1s0,5.48-.66,5.75l-1.55.71s.56,2.67-.07,3.61a5.76,5.76,0,0,1-1.82,1.56,7.06,7.06,0,0,1-.72,3.09,25,25,0,0,1-2.21,2.3s-.43,3.55-2.08,4.21a4.79,4.79,0,0,0-2,1.17l-.53-2.14s-4.49-3.09-5.4-3.65-1.32-1.85-.44-2.41,6.71,2.41,6.71,2.41l2.11-2.17-1.25-2.4s-2.57-2.79-2.51-3.39a2.25,2.25,0,0,1,2.18-1.47c1,.1,3.6,2.36,3.6,2.36h0a.61.61,0,0,0,1.1.06l.15-.3s-.89-2.78-1.37-4.85c-.12-.54.06-1.49.59-1.73,1.07-.48,2-.53,2.54.49h0Z"/><path class="cls-14" d="M217.6,238.23a4,4,0,0,0,1.32.09l-.16-.12a5.53,5.53,0,0,0,.71,2,2.32,2.32,0,0,0,1.05.89,1.8,1.8,0,0,0,1.55,0,1.85,1.85,0,0,0,.81-1.08,5,5,0,0,0,.22-1.15,8.3,8.3,0,0,0,0-1.94,4,4,0,0,0-.47-1.71,16.81,16.81,0,0,0,.12,1.74,10.18,10.18,0,0,1-.09,1.85c-.1.68-.23,1.52-.83,1.85a1.33,1.33,0,0,1-1.12,0,2,2,0,0,1-.86-.7,6.24,6.24,0,0,1-.78-1.78l0-.13-.11,0A4,4,0,0,0,217.6,238.23Z"/><path class="cls-14" d="M224.9,247.7a12.59,12.59,0,0,0-1.93-1.52l-2.19-1.54-1.28-.89a2.12,2.12,0,0,1-.79-1.22c-.08-.44.4-.75.85-.69a6.06,6.06,0,0,1,1.46.33c.94.31,1.78.67,2.47,1a16,16,0,0,0,2.28.92,10,10,0,0,0-2.13-1.24,21.61,21.61,0,0,0-2.47-1.07,6.17,6.17,0,0,0-1.59-.39,1.34,1.34,0,0,0-1,.25,1,1,0,0,0-.42,1,2.51,2.51,0,0,0,1,1.56l1.33.89,2.24,1.45A11.22,11.22,0,0,0,224.9,247.7Z"/><path class="cls-14" d="M231.85,240.05c.13,0,0-.93-.55-1.85s-1.37-1.4-1.44-1.3.48.71,1,1.56S231.71,240.09,231.85,240.05Z"/><path class="cls-14" d="M232.55,230.19c-.13.06.28,1,.86,2a11.72,11.72,0,0,0,1,1.89c.14,0,0-1.05-.6-2.13S232.66,230.13,232.55,230.19Z"/><path class="cls-6" d="M210.5,255.63c-.43.65-6.93,11.9-6.93,11.9s-14.62-34.9-19.75-35.44c-5.31-.56-1.42,15.67-1.42,15.67l12.76,38.92s9,2.78,14-.49,16.28-25.75,16.28-25.75Z"/><path class="cls-6" d="M167.75,227.26s12.32,24,15.85,36.77c2.31,8.36,5.59,31,5.59,31l10.14-2.25-8.66-30.28-7.07-29.38-11-2.17Z"/><path class="cls-5" d="M164.14,287.28a3.27,3.27,0,0,1-.36-.51l-.95-1.52c-.85-1.38-2-3.29-3.43-5.62L148.29,261c-2.14-3.66-4.25-7.1-6-10.34a33.37,33.37,0,0,1-3.53-9.13,18.35,18.35,0,0,1-.2-6.6,13.67,13.67,0,0,1,.41-1.75,2.48,2.48,0,0,1,.22-.58c.06,0-.23.83-.42,2.36a19.21,19.21,0,0,0,.36,6.49,33.86,33.86,0,0,0,3.59,9c1.76,3.21,3.89,6.65,6,10.31l11,18.73,3.28,5.71.86,1.56A2.24,2.24,0,0,1,164.14,287.28Z"/><path class="cls-5" d="M187.53,240.64a2.56,2.56,0,0,1,.21.48c.14.38.3.85.51,1.41.42,1.23,1,3,1.61,5.26a181.19,181.19,0,0,1,3.77,17.77c.57,3.49,1.12,6.81,1.62,9.85.25,1.51.49,2.95.71,4.3a30.81,30.81,0,0,0,.92,3.65c.7,2.21,1.35,4,1.74,5.21.2.62.35,1.11.43,1.44a2.44,2.44,0,0,1,.11.51A1.72,1.72,0,0,1,199,290c-.14-.37-.32-.84-.52-1.4-.46-1.21-1.16-2.95-1.91-5.16a28.43,28.43,0,0,1-1-3.69c-.25-1.35-.5-2.79-.77-4.29-.51-3-1.07-6.36-1.66-9.85-1.17-7-2.46-13.27-3.6-17.76-.58-2.24-1.09-4-1.45-5.3-.17-.57-.3-1.05-.41-1.44A1.75,1.75,0,0,1,187.53,240.64Z"/><path class="cls-5" d="M172.64,230.9a2,2,0,0,1,.5.25,13.28,13.28,0,0,1,1.31.9,35.32,35.32,0,0,1,4.23,4,40.21,40.21,0,0,1,2.58,3.11c.86,1.18,1.68,2.49,2.51,3.9a52.93,52.93,0,0,1,4.52,9.59A49.57,49.57,0,0,1,190.91,263a34.86,34.86,0,0,1,0,8.67,39.81,39.81,0,0,1-1.1,5.73c-.17.67-.33,1.18-.44,1.53a1.74,1.74,0,0,1-.2.51,2.43,2.43,0,0,1,.09-.54c.1-.41.21-.92.35-1.55a49.38,49.38,0,0,0,.92-5.72,36.06,36.06,0,0,0-.13-8.57,50.91,50.91,0,0,0-2.63-10.17,54.88,54.88,0,0,0-4.45-9.52c-.81-1.4-1.61-2.73-2.44-3.89s-1.7-2.2-2.5-3.12a38.3,38.3,0,0,0-4.09-4.11C173.27,231.33,172.62,230.94,172.64,230.9Z"/><path class="cls-5" d="M143.38,319.55a2.1,2.1,0,0,1,.19.57,16,16,0,0,1,.34,1.66,22.23,22.23,0,0,1,.1,6.08l0,.24-.24,0a83.77,83.77,0,0,0-19.87-1l-.49,0,.3-.39,3.53-4.67a13,13,0,0,1,1.41-1.7,13.57,13.57,0,0,1-1.2,1.86c-.88,1.24-2,2.86-3.38,4.78l-.2-.36a73.6,73.6,0,0,1,20,1l-.26.19a25.42,25.42,0,0,0,.1-6C143.5,320.38,143.32,319.57,143.38,319.55Z"/><path class="cls-6" d="M128.16,237.6s-9.11,6.08-10.33,13c-1.63,9.36,1.6,42.16,2.45,49.61s5.75,14.06,10.86,14.48,45.57-14.26,45.57-14.26l-4.05-14.91-29.38,6-3-34.49Z"/><path class="cls-13" d="M174,289.61a67.42,67.42,0,0,1,15.14-.64c7.11.69,10,3.75,10,3.75l-22.95,7.16Z"/><path class="cls-6" d="M140.68,261.41l2.6,30.1,29.38-6,4.05,14.91s-30.92,12.22-35.26,12.76-16.1,2.75-18.63-5.11"/><path class="cls-5" d="M122.82,308.11a1.51,1.51,0,0,1,.13.26q.15.3.36.78a7.43,7.43,0,0,0,2.11,2.5,10.43,10.43,0,0,0,4.86,1.87,28.58,28.58,0,0,0,7,0c1.3-.13,2.66-.33,4.09-.53a34,34,0,0,0,4.29-1.2c2.94-1,6.07-2.12,9.38-3.34,6.6-2.45,13.87-5.25,21.56-8.28l-.16.31c-.71-2.63-1.47-5.4-2.23-8.22q-.93-3.39-1.81-6.68l.31.19-29.4,5.92-.24,0,0-.25c-.75-9-1.36-16.57-1.8-21.86-.2-2.61-.35-4.66-.46-6.1-.05-.68-.08-1.21-.11-1.61a3.27,3.27,0,0,1,0-.55,3.56,3.56,0,0,1,.08.55c0,.39.1.92.17,1.6.14,1.43.34,3.49.59,6.08l2,21.85-.26-.2,29.37-6,.25-.05.06.24c.6,2.19,1.2,4.42,1.82,6.68.76,2.82,1.51,5.59,2.23,8.23l.06.23-.22.08c-7.7,3-15,5.81-21.6,8.24-3.31,1.21-6.45,2.33-9.41,3.29a33.49,33.49,0,0,1-4.37,1.19c-1.42.18-2.79.38-4.11.49a28.5,28.5,0,0,1-7.09-.11,10.61,10.61,0,0,1-4.92-2,7.28,7.28,0,0,1-2.09-2.61l-.31-.81A1.17,1.17,0,0,1,122.82,308.11Z"/><path class="cls-5" d="M122.74,243.68a7.41,7.41,0,0,1,2.62,0A15.9,15.9,0,0,1,136,250a7.32,7.32,0,0,1,1.26,2.3c-.08,0-.56-.83-1.56-2.07a17.7,17.7,0,0,0-4.66-4,18,18,0,0,0-5.77-2.18C123.74,243.78,122.74,243.78,122.74,243.68Z"/><path class="cls-7" d="M140.61,418.1H68.12V311.2h67.5a4.66,4.66,0,0,1,4.66,4.66Z"/><g class="cls-15"><polygon points="110.22 418.1 68.12 418.1 68.12 311.2 109.99 311.36 110.22 418.1"/></g><path class="cls-5" d="M140.61,417.56s0-.15,0-.46,0-.77,0-1.33c0-1.21,0-2.94-.05-5.15,0-4.49,0-10.95-.09-18.92,0-16,0-38.06-.07-62.42,0-4,0-7.93-.1-11.76l0-1.43a5.94,5.94,0,0,0-.2-1.34,3.88,3.88,0,0,0-1.43-2.16,7.67,7.67,0,0,0-5.08-1.11h0l-46.82-.11L73,311.29l-3.65,0-.94,0-.32,0,.32,0,.94,0,3.65,0,13.62-.07,46.82-.08h0a9.77,9.77,0,0,1,2.8.11,6.2,6.2,0,0,1,2.65,1.09,4.42,4.42,0,0,1,1.63,2.44,6.63,6.63,0,0,1,.23,1.46l0,1.44c.13,3.84.1,7.77.1,11.76,0,24.37-.06,46.43-.08,62.43,0,8-.06,14.43-.08,18.92,0,2.21,0,3.94-.05,5.15,0,.56,0,1,0,1.33A2.63,2.63,0,0,1,140.61,417.56Z"/></g><g id="Table"><polygon class="cls-9" points="306.39 347.85 274.42 433.98 279.53 433.98 317.61 347.85 306.39 347.85"/><polygon class="cls-9" points="373.63 347.85 405.6 433.98 400.5 433.98 362.42 347.85 373.63 347.85"/><polygon class="cls-9" points="334.27 347.85 335.97 419.03 342.33 419.03 344.28 347.85 334.27 347.85"/><g class="cls-18"><path class="cls-1" d="M412.39,344.66a.84.84,0,0,0-.05-.2v0h0c-1.48-3.26-32.49-5.87-70.55-5.87-39,0-70.62,2.74-70.62,6.11v4.1c0,3.37,31.62,6.11,70.62,6.11s70.62-2.74,70.62-6.11c0-.51,0-2.93-.05-3.92A.61.61,0,0,0,412.39,344.66Z"/></g><path class="cls-5" d="M412.39,344.66a.91.91,0,0,0-.37-.6,6.51,6.51,0,0,0-1.95-.9,52.36,52.36,0,0,0-8.15-1.6c-7.17-1-17.62-1.77-30.54-2.26s-28.34-.7-45.44-.35c-8.55.18-17.52.49-26.81,1.1-4.64.31-9.36.68-14.13,1.24-2.38.28-4.78.6-7.17,1-1.19.22-2.38.47-3.55.8a13.63,13.63,0,0,0-1.7.59,3.93,3.93,0,0,0-.76.42.83.83,0,0,0-.41.52.78.78,0,0,0,.4.52,3.93,3.93,0,0,0,.76.42,12.19,12.19,0,0,0,1.7.59c1.17.33,2.36.58,3.55.81,2.39.44,4.79.76,7.17,1,4.77.55,9.49.93,14.14,1.24,9.28.61,18.26.92,26.81,1.1,17.1.34,32.51.14,45.44-.35s23.37-1.29,30.54-2.26a52.78,52.78,0,0,0,8.16-1.6,6.29,6.29,0,0,0,1.94-.91.89.89,0,0,0,.37-.6s.05.3-.34.64a6,6,0,0,1-1.94,1A50.43,50.43,0,0,1,402,348c-7.17,1-17.62,1.88-30.56,2.43s-28.35.78-45.46.46c-8.56-.17-17.54-.47-26.84-1.07-4.65-.31-9.37-.68-14.16-1.24-2.39-.28-4.79-.6-7.2-1-1.2-.23-2.41-.48-3.6-.82a15,15,0,0,1-1.78-.61,4.5,4.5,0,0,1-.85-.48,1.23,1.23,0,0,1-.61-1,1.27,1.27,0,0,1,.62-.93,4,4,0,0,1,.86-.47,12.82,12.82,0,0,1,1.77-.62c1.19-.34,2.4-.59,3.6-.81,2.41-.44,4.81-.77,7.2-1.05,4.78-.55,9.51-.93,14.16-1.23,9.29-.6,18.27-.91,26.83-1.07,17.11-.32,32.53-.08,45.46.46s23.39,1.39,30.56,2.43a50.43,50.43,0,0,1,8.16,1.7,6.28,6.28,0,0,1,1.94,1C412.44,344.36,412.4,344.68,412.39,344.66Z"/><path class="cls-5" d="M271.15,344.66a2.06,2.06,0,0,1,0,.39c0,.29,0,.67,0,1.15s0,1.14,0,1.87c0,.36-.1.8.18,1.08a3.25,3.25,0,0,0,1.11.7,32.76,32.76,0,0,0,6.74,1.61c2.69.42,5.76.79,9.17,1.12,13.63,1.3,32.56,2,53.46,2s39.83-.74,53.47-2.06c3.4-.33,6.48-.7,9.16-1.13a29.84,29.84,0,0,0,6.73-1.67,2.24,2.24,0,0,0,1-.78,1.49,1.49,0,0,0,.06-.57V346c0-.48,0-.86,0-1.15s0-.39,0-.39a2.55,2.55,0,0,1,0,.39c0,.29,0,.67,0,1.15s0,1.14,0,1.87v.57a1.32,1.32,0,0,1-.06.64,2.26,2.26,0,0,1-1.08.89,28.86,28.86,0,0,1-6.76,1.77c-2.69.47-5.77.86-9.18,1.22-13.64,1.41-32.58,2.2-53.5,2.21s-39.85-.79-53.5-2.19c-3.41-.35-6.49-.74-9.17-1.2a31.86,31.86,0,0,1-6.79-1.71,3.44,3.44,0,0,1-1.16-.76.87.87,0,0,1-.2-.63v-.57c0-.73,0-1.35,0-1.87s0-.86,0-1.15A2.06,2.06,0,0,1,271.15,344.66Z"/></g><g id="Plant"><path class="cls-5" d="M53.68,392.72a.89.89,0,0,1,0-.23c0-.17,0-.39-.08-.68-.07-.61-.16-1.48-.29-2.6-.26-2.26-.65-5.53-1.24-9.55a270.25,270.25,0,0,0-6.36-31.09c-1.62-6-3.45-11.61-5.35-16.64a118.19,118.19,0,0,0-5.82-13,72.67,72.67,0,0,0-5-8.21c-.64-.94-1.19-1.62-1.55-2.1-.17-.24-.31-.42-.41-.55a2.07,2.07,0,0,1-.13-.19s.06.05.16.17l.43.53c.37.47.94,1.14,1.6,2.07a69.83,69.83,0,0,1,5.1,8.17,116.76,116.76,0,0,1,5.9,13c1.91,5,3.75,10.66,5.37,16.66a254.58,254.58,0,0,1,6.28,31.14c.57,4,.93,7.3,1.15,9.57.11,1.13.19,2,.23,2.61l.05.68C53.68,392.64,53.68,392.72,53.68,392.72Z"/><path class="cls-6" d="M31.14,300.82c-1.3-4-2.79-7.87-4.47-11.68-2.48-5.63-5.76-11.47-11.38-14-2.59-1.15-6-1.32-7.94.75-1.66,1.77-1.65,4.6-.8,6.87S9,287,10.14,289.13A63.44,63.44,0,0,1,14,298.69a24.63,24.63,0,0,0,5,8.93c2.4,2.46,5.94,4.05,9.3,3.33l2.05-2.47A4.64,4.64,0,0,0,32,304.84,12.7,12.7,0,0,0,31.14,300.82Z"/><g class="cls-15"><path d="M22.58,281.56s-2.58,22.9,3.81,29.63a2.1,2.1,0,0,0,2.28-.67c.88-.82-4.55-26.51-4.55-26.51Z"/></g><path class="cls-6" d="M74.74,256.14s-6.53-.78-12.82,10.82-7.88,33.19-4,38.19,5.83-7.4,5.29-7.17,11.52-41.32,11.52-41.32"/><g class="cls-15"><path d="M74.74,256.14s-6.53-.78-12.82,10.82-7.88,33.19-4,38.19,5.83-7.4,5.29-7.17,11.52-41.32,11.52-41.32"/></g><path class="cls-5" d="M64.52,310.18a.92.92,0,0,1,0,.22c0,.15,0,.36-.06.62-.06.56-.15,1.36-.27,2.38-.24,2.08-.59,5.07-1,8.75-.9,7.4-2.15,17.59-3.51,28.85-.69,5.63-1.39,11-1.91,15.88s-.91,9.3-1.1,13-.23,6.72-.2,8.8c0,1,0,1.85.06,2.4,0,.26,0,.46,0,.62a.67.67,0,0,1,0,.21s0-.07,0-.21,0-.36,0-.62c0-.55-.08-1.35-.11-2.39-.06-2.08-.07-5.1.1-8.82s.52-8.13,1-13,1.19-10.26,1.88-15.89c1.41-11.25,2.68-21.44,3.6-28.84.48-3.68.86-6.66,1.13-8.74.13-1,.24-1.81.32-2.37l.09-.62A1.76,1.76,0,0,1,64.52,310.18Z"/><path class="cls-5" d="M55,392.72s0-.06,0-.17l-.07-.5c-.05-.47-.13-1.11-.23-1.94-.21-1.68-.47-4.11-.78-7.12-.64-6-1.43-14.33-2.67-23.48-.61-4.57-1.34-8.9-2.08-12.83-.38-2-.75-3.82-1.15-5.56s-.78-3.34-1.15-4.8-.76-2.78-1.08-3.94c-.16-.57-.32-1.11-.46-1.6l-.43-1.34c-.25-.79-.44-1.42-.58-1.86l-.14-.49c0-.11-.05-.16,0-.17l.06.16.18.48.63,1.84c.14.4.29.85.46,1.33s.31,1,.48,1.61c.34,1.15.76,2.45,1.12,3.92s.82,3.07,1.2,4.81.79,3.59,1.18,5.56c.75,3.93,1.49,8.27,2.11,12.84,1.24,9.15,2,17.48,2.57,23.5.29,3,.52,5.42.68,7.13.08.83.14,1.48.19,1.94,0,.21,0,.37,0,.51Z"/><path class="cls-5" d="M52.08,393.52s0,0,0-.14L52,393c-.07-.38-.17-.89-.29-1.54s-.28-1.49-.49-2.44-.41-2-.7-3.21-.58-2.49-1-3.87-.78-2.86-1.23-4.4c-.93-3.09-2-6.45-3.35-9.93-2.64-7-5.5-13.06-7.67-17.43-1.08-2.18-2-3.94-2.61-5.15l-.71-1.4-.18-.36a.93.93,0,0,1,0-.13s0,0,.08.11.12.21.2.35l.77,1.38c.66,1.19,1.59,2.93,2.7,5.11a179.34,179.34,0,0,1,7.76,17.41c1.31,3.49,2.42,6.86,3.33,10,.44,1.55.87,3,1.21,4.42s.65,2.69.92,3.88.47,2.28.66,3.23.33,1.77.43,2.45S52,392.59,52,393c0,.16,0,.3,0,.41A1.25,1.25,0,0,1,52.08,393.52Z"/><path class="cls-6" d="M74.74,256.14c-6,3.69-10.07,9.9-12.28,16.55a81.14,81.14,0,0,0-2.4,10,103.56,103.56,0,0,0-2.35,16.59c-.08,2.34-.4,6,1.1,7.77.95,1.14,1.12,2.14,2.6,2.21l5.83-16.33c2.07-5.71,3-11.38,4.7-17.54,1-3.83,3.1-9.8,3.38-12.76C75.63,259.38,76.73,256.6,74.74,256.14Z"/><path class="cls-5" d="M55.82,390.83s0-.08,0-.22l0-.63c0-.57-.09-1.38-.16-2.42-.12-2.13-.3-5.17-.51-8.93-.1-1.89-.25-3.95-.31-6.17s-.13-4.59-.15-7.09c0-5,.08-10.48.48-16.23S56.22,337.93,57,333s1.52-9.37,2.16-13.09,1.14-6.72,1.5-8.81l.4-2.4c0-.26.09-.47.11-.62s0-.21,0-.21a.83.83,0,0,1,0,.21q0,.24-.09.63c-.08.57-.19,1.37-.34,2.4-.31,2.09-.8,5.11-1.41,8.83S58,328.1,57.24,333s-1.44,10.37-1.83,16.12-.53,11.22-.51,16.21c0,2.5.06,4.87.12,7.08s.19,4.28.27,6.17c.18,3.76.32,6.8.42,8.93,0,1,.08,1.86.1,2.43,0,.26,0,.47,0,.63A.77.77,0,0,1,55.82,390.83Z"/><g class="cls-15"><path d="M69.31,286s-13.65,6.31-10.5,21l2.37,3.14Z"/></g><path class="cls-6" d="M96.81,280.08a2.18,2.18,0,0,0-1.29-.32,44,44,0,0,0-16,2.44,33.94,33.94,0,0,0-13.1,8,23.4,23.4,0,0,0-6.76,13.6A12.89,12.89,0,0,0,61.77,313c2,2.58,5.65,4,8.63,2.71l-.21,0A8,8,0,0,0,75,312.59c1.67-2.26,2.43-5,3.51-7.64a31.86,31.86,0,0,1,9-12.24,10.05,10.05,0,0,1-4.51-1,18.28,18.28,0,0,0,13.76-8.91C97.24,282,97.6,280.7,96.81,280.08Z"/><path class="cls-5" d="M97.34,281.09a2.74,2.74,0,0,1-.48.19l-1.4.49c-1.21.43-3,1-5.13,1.83A66.05,66.05,0,0,0,83,286.81a38,38,0,0,0-8.13,5.53,27.91,27.91,0,0,0-6,7.76,40,40,0,0,0-3,7.47c-.65,2.2-1,4-1.29,5.28-.13.61-.22,1.09-.29,1.45a3.6,3.6,0,0,1-.12.5,3.19,3.19,0,0,1,.06-.51c0-.34.11-.83.23-1.47a54.26,54.26,0,0,1,1.2-5.31A39,39,0,0,1,68.61,300a27.94,27.94,0,0,1,6-7.86,37.78,37.78,0,0,1,8.2-5.55,67.18,67.18,0,0,1,7.44-3.17c2.17-.78,3.94-1.34,5.17-1.73l1.41-.44Z"/><path class="cls-6" d="M33,271.46c-1.1.42-12.07,4.46-8.54,24.32,0,0,.93,12.63,2.78,14.48a26.77,26.77,0,0,0,4.27,3.34H28.41s-.21,9.47,6.47,12.81,9.92,2.74,9.92,2.74a11.57,11.57,0,0,0,8.65-9.79c1.3-8.35-3.16-23.21-7.24-30.08S40.83,268.49,33,271.46Z"/><path class="cls-5" d="M32.35,272.07s0,.05,0,.15,0,.27-.05.45c0,.39-.16,1-.2,1.7a36.55,36.55,0,0,0,0,6.29,66.15,66.15,0,0,0,1.5,9.21c.8,3.43,1.87,7.15,3.09,11L43,320.76c.78,2.53,1.42,4.58,1.86,6l.5,1.65c0,.17.08.31.12.43l0,.15s0,0-.06-.14l-.15-.43c-.13-.39-.32-.93-.55-1.62-.47-1.44-1.13-3.49-2-6-1.62-5.1-3.86-12.11-6.34-19.84-1.22-3.88-2.28-7.62-3.07-11.06a64.4,64.4,0,0,1-1.45-9.25,34.14,34.14,0,0,1,.07-6.32c.06-.75.2-1.31.25-1.7,0-.18.06-.32.09-.44Z"/><path class="cls-6" d="M35.92,336.5C34.71,330.7,29.86,326.41,25,323a104.51,104.51,0,0,0-16.75-9.59c-2.33-1.07-5-2.06-7.38-1.19l-.09,0A1.38,1.38,0,0,0,0,313.54v.17c.55,5,4.11,9.25,7.77,12.7s7.92,6.21,11.64,9.59l3.76-.36a3.17,3.17,0,0,0-1.9,3.54c.34,1.73,1.74,3,3.14,4.09a36.64,36.64,0,0,0,7.78,4.52,3,3,0,0,0,1.22.27c2,0,2.43-2.07,2.58-3.72A26.74,26.74,0,0,0,35.92,336.5Z"/><path class="cls-5" d="M.3,312.8a5,5,0,0,1,.48.2l1.34.63C3.29,314.19,5,315,7,316a74.77,74.77,0,0,1,15.08,9.77,44.49,44.49,0,0,1,6.77,7.24,36.32,36.32,0,0,1,4.05,7,30.83,30.83,0,0,1,1.71,5.18c.14.63.23,1.12.28,1.46a2.86,2.86,0,0,1,.07.51,2.44,2.44,0,0,1-.13-.5c-.07-.33-.18-.82-.34-1.44a33,33,0,0,0-1.79-5.12,37.28,37.28,0,0,0-4.08-6.93A44.86,44.86,0,0,0,21.9,326a78.09,78.09,0,0,0-15-9.81c-2-1.07-3.7-1.91-4.85-2.49l-1.32-.68A3.42,3.42,0,0,1,.3,312.8Z"/><path class="cls-5" d="M23.52,300.12s-.06-.08-.14-.25-.22-.47-.37-.77c-.33-.72-.77-1.68-1.31-2.84A92,92,0,0,0,17,287.12c-1-1.72-2.06-3.35-3-4.79a30.55,30.55,0,0,0-2.88-3.6,22,22,0,0,0-2.29-2.11,9.45,9.45,0,0,1-.89-.72,1.16,1.16,0,0,1,.26.15c.16.1.41.25.7.47a19.12,19.12,0,0,1,2.38,2.06,28.78,28.78,0,0,1,3,3.59c1,1.44,2,3.07,3.08,4.79a75.09,75.09,0,0,1,4.68,9.21c.53,1.21.95,2.2,1.23,2.88.12.32.23.58.31.79A1,1,0,0,1,23.52,300.12Z"/><path class="cls-7" d="M78.79,373.24l-21.48-.14v0l-2.56,0-2.56,0v0l-21.47.14c-.11,1.33-12,35.25,11.71,44.86H67.08C90.78,408.49,78.9,374.57,78.79,373.24Z"/><path class="cls-5" d="M81.44,382.79c0,.12-11.93.23-26.64.23s-26.65-.11-26.65-.23,11.93-.22,26.65-.22S81.44,382.67,81.44,382.79Z"/></g><g id="Briefcase"><polygon class="cls-6" points="187.73 428.19 114.77 428.19 119.78 378 182.25 378 187.73 428.19"/><polygon class="cls-17" points="119.78 378 125.23 378 125.48 428.19 114.77 428.19 119.78 378"/><path class="cls-6" d="M125.23,378s7.62,25.53,32.1,25.1S182.25,378,182.25,378"/><path class="cls-5" d="M182.25,378a3.66,3.66,0,0,1,0,.85,21.55,21.55,0,0,1-.25,2.41,30.77,30.77,0,0,1-2.54,8.55,25.63,25.63,0,0,1-3.28,5.24,21.62,21.62,0,0,1-5.34,4.68c-4.27,2.7-9.92,3.86-15.67,3.59a30,30,0,0,1-8.29-1.52,29.3,29.3,0,0,1-7-3.48,35.65,35.65,0,0,1-9.3-9.39,43.73,43.73,0,0,1-4.26-7.84c-.4-1-.68-1.74-.85-2.27a4.71,4.71,0,0,1-.22-.82,6.75,6.75,0,0,1,.32.78c.2.52.5,1.28.94,2.23a46.22,46.22,0,0,0,4.38,7.71,35.87,35.87,0,0,0,9.25,9.2,29.2,29.2,0,0,0,15.07,4.88c5.68.27,11.21-.86,15.4-3.48a21.29,21.29,0,0,0,5.26-4.54,25.12,25.12,0,0,0,3.27-5.13,32,32,0,0,0,2.68-8.42c.19-1,.29-1.84.35-2.39A7.19,7.19,0,0,1,182.25,378Z"/><path class="cls-5" d="M125.48,428.19a10.73,10.73,0,0,1-1.19-2.08c-.34-.66-.73-1.44-1.14-2.33-.1-.23-.2-.46-.31-.69l-.14-.38,0-.1,0-.05a.45.45,0,0,1,0-.2l0-.09,0,0c-.23.24.6.57.28.4h0l0,0-.08.05-1.34.95c-1.83,1.31-3.51,2.47-4.73,3.3a11,11,0,0,1-2,1.24,11.06,11.06,0,0,1,1.83-1.54c1.17-.9,2.81-2.11,4.65-3.42l1.35-1,.08-.06.06,0,0,0h0c-.4-.25.69.32.1.24l.11.08.12.05v0a.1.1,0,0,0,0-.09v0l0,.09.13.35.29.68,1,2.38A10.69,10.69,0,0,1,125.48,428.19Z"/><path class="cls-5" d="M122.88,378c.14,0,.26,9.94.26,22.2s-.12,22.21-.26,22.21-.26-9.94-.26-22.21S122.73,378,122.88,378Z"/><path class="cls-5" d="M159.42,378c1.43-.72,2.58-2.35,2-3.85a5.2,5.2,0,0,0-3.51-3,11.39,11.39,0,0,0-4.76-.13,28.83,28.83,0,0,0-15.41,7.33l5.07-.13a20.79,20.79,0,0,1,9.24-4.33,15.1,15.1,0,0,1,3.64-.4c.76.16,2.37.33,2.68,1,.57,1.26-.67,2.35-2.53,3.48Z"/><rect class="cls-1" x="153.74" y="401.4" width="4" height="4"/></g></g></svg>